<?xml version="1.0" encoding="iso-8859-1"?>
<!-- Generator: Adobe Illustrator 19.0.0, SVG Export Plug-In . SVG Version: 6.00 Build 0)  -->
<svg version="1.1" id="Capa_1" xmlns="http://www.w3.org/2000/svg" xmlns:xlink="http://www.w3.org/1999/xlink" x="0px" y="0px"
	 viewBox="0 0 512 512" style="enable-background:new 0 0 512 512;" xml:space="preserve">
<circle style="fill:#78D2FA;" cx="33.999" cy="477.991" r="23.999"/>
<circle style="fill:#F5C86E;" cx="478.001" cy="477.991" r="23.999"/>
<circle style="fill:#FF5A5A;" cx="33.999" cy="34.009" r="23.999"/>
<circle style="fill:#A5DC69;" cx="478.001" cy="34.009" r="23.999"/>
<polygon style="fill:#6E87F5;" points="140.964,99.54 171.428,117.853 218.102,98.51 226.698,64.007 285.282,64.007 293.878,98.51 
	340.552,117.853 371.016,99.54 412.449,140.974 394.137,171.438 413.48,218.112 447.982,226.708 447.982,285.292 413.48,293.887 
	394.137,340.562 412.449,371.025 371.016,412.459 340.552,394.147 293.878,413.49 285.282,447.992 226.698,447.992 218.102,413.49 
	171.428,394.147 140.964,412.459 99.531,371.025 117.843,340.562 98.5,293.887 63.997,285.292 63.997,226.708 98.5,218.112 
	117.843,171.438 99.531,140.974 "/>
<circle style="fill:#FFFFFF;" cx="255.99" cy="256" r="117.995"/>
<path d="M421.02,365.874l-15.714-26.142l15.482-37.36l29.612-7.378c4.456-1.109,7.583-5.111,7.583-9.703V266h43.998
	c5.523,0,10-4.478,10-10c0-5.523-4.477-10-10-10h-43.998v-19.292c0-4.592-3.127-8.593-7.583-9.704l-29.612-7.377l-15.482-37.36
	l15.714-26.142c2.366-3.935,1.747-8.976-1.5-12.223l-41.434-41.434c-3.248-3.247-8.289-3.865-12.223-1.5l-26.142,15.714
	l-37.36-15.482l-7.377-29.612c-1.11-4.456-5.112-7.583-9.704-7.583H265.99V10.009c0-5.523-4.477-10-10-10s-10,4.477-10,10v43.998
	h-19.292c-4.592,0-8.593,3.127-9.704,7.583l-7.377,29.612l-37.36,15.482l-26.142-15.714c-3.937-2.366-8.976-1.748-12.223,1.5
	l-41.434,41.434c-3.247,3.247-3.865,8.288-1.5,12.223l15.714,26.142l-15.482,37.36l-29.612,7.377
	c-4.456,1.11-7.583,5.112-7.583,9.704V246H10c-5.523,0-10,4.477-10,10c0,5.522,4.477,10,10,10h43.998v19.292
	c0,4.592,3.127,8.594,7.583,9.703l29.612,7.378l15.482,37.36L90.96,365.874c-2.366,3.936-1.747,8.977,1.5,12.224l41.434,41.434
	c3.247,3.246,8.288,3.864,12.224,1.499l26.141-15.714l37.36,15.482l7.377,29.611c1.11,4.456,5.112,7.583,9.704,7.583h19.291v43.998
	c0,5.522,4.477,10,10,10c5.523,0,10-4.478,10-10v-43.998h19.292c4.592,0,8.593-3.127,9.704-7.583l7.377-29.611l37.36-15.482
	l26.141,15.714c3.936,2.365,8.976,1.747,12.224-1.499l41.434-41.434C422.766,374.85,423.385,369.809,421.02,365.874z
	 M385.567,345.714l14.286,23.766l-30.383,30.384l-23.766-14.286c-2.719-1.635-6.051-1.883-8.981-0.668l-46.674,19.343
	c-2.929,1.214-5.108,3.744-5.875,6.821l-6.707,26.92h-42.956l-6.707-26.92c-0.767-3.077-2.946-5.607-5.875-6.821l-46.674-19.343
	c-2.93-1.215-6.262-0.967-8.981,0.668l-23.766,14.286l-30.383-30.384l14.286-23.766c1.634-2.719,1.881-6.051,0.667-8.98
	l-19.342-46.674c-1.214-2.929-3.745-5.108-6.821-5.875l-26.92-6.708v-42.956l26.921-6.707c3.076-0.767,5.607-2.946,6.821-5.875
	l19.342-46.674c1.214-2.93,0.966-6.262-0.667-8.98l-14.286-23.766l30.383-30.383l23.766,14.286c2.718,1.634,6.05,1.882,8.98,0.667
	l46.674-19.342c2.929-1.214,5.108-3.745,5.875-6.821l6.707-26.921h42.956l6.707,26.921c0.767,3.076,2.946,5.607,5.875,6.821
	l46.674,19.342c2.931,1.214,6.262,0.966,8.98-0.667l23.766-14.286l30.383,30.383l-14.286,23.766c-1.634,2.718-1.881,6.05-0.667,8.98
	l19.342,46.674c1.214,2.929,3.745,5.108,6.821,5.875l26.921,6.707v42.956l-26.921,6.708c-3.076,0.767-5.607,2.946-6.821,5.875
	l-19.342,46.674C383.685,339.664,383.933,342.996,385.567,345.714z"/>
<path d="M300.089,135.808c-5.184-1.9-10.93,0.758-12.832,5.942c-1.903,5.185,0.758,10.93,5.942,12.833
	c42.34,15.539,70.787,56.296,70.787,101.418c0,59.55-48.447,107.996-107.996,107.996S147.994,315.55,147.994,256
	c0-42.696,25.228-81.47,64.269-98.78c5.049-2.238,7.327-8.146,5.088-13.195c-2.238-5.048-8.147-7.327-13.194-5.088
	c-46.266,20.513-76.162,66.463-76.162,117.062c0,70.576,57.418,127.995,127.995,127.995S383.985,326.576,383.985,256
	C383.985,202.526,350.269,154.224,300.089,135.808z"/>
<path d="M255.99,148.004l0.471,0.001c0.01,0,0.02,0,0.03,0c5.509,0,9.983-4.458,10-9.971c0.016-5.523-4.448-10.013-9.971-10.029
	l-0.53-0.001c-5.523,0-10,4.477-10,10S250.467,148.004,255.99,148.004z"/>
<path d="M335.654,284.505V226.22c0-5.523-4.477-10-10-10s-10,4.477-10,10v58.285c0,5.522,4.477,10,10,10
	S335.654,290.027,335.654,284.505z"/>
<path d="M246.558,226.22v19.938V259.8v24.705c0,5.522,4.477,10,10,10c5.523,0,10-4.478,10-10v-14.705h10.603
	c13.95,0,25.3-11.351,25.3-25.3v-2.979c0-13.95-11.35-25.3-25.3-25.3h-20.602C251.035,216.221,246.558,220.697,246.558,226.22z
	 M266.558,236.22h10.603c2.923,0,5.301,2.378,5.301,5.301v2.979c0,2.923-2.378,5.301-5.301,5.301h-10.603v-3.642V236.22z"/>
<path d="M200.992,216.221c-3.999,0-7.613,2.382-9.19,6.057l-25.666,59.814c-2.178,5.075,0.171,10.955,5.247,13.132
	c5.076,2.177,10.955-0.171,13.132-5.246l16.476-38.398l16.477,38.398c1.626,3.79,5.316,6.06,9.194,6.06
	c1.315,0,2.653-0.262,3.938-0.813c5.075-2.178,7.424-8.058,5.246-13.132l-25.666-59.814
	C208.605,218.602,204.991,216.221,200.992,216.221z"/>
<path d="M416.768,105.222c2.559,0,5.119-0.976,7.071-2.929l38.251-38.252c4.751,2.527,10.166,3.966,15.911,3.966
	c18.747,0,33.999-15.251,33.999-33.999S496.749,0.01,478.001,0.01s-33.999,15.251-33.999,33.999c0,5.736,1.433,11.141,3.952,15.884
	l-38.259,38.258c-3.905,3.905-3.905,10.237,0,14.142C411.649,104.246,414.209,105.222,416.768,105.222z M478.001,20.009
	c7.72,0,13.999,6.28,13.999,13.999s-6.28,13.999-13.999,13.999c-7.72,0-13.999-6.28-13.999-13.999S470.282,20.009,478.001,20.009z"
	/>
<path d="M88.142,409.706l-38.244,38.246c-4.748-2.523-10.158-3.959-15.898-3.959C15.251,443.993,0,459.244,0,477.991
	s15.251,33.999,33.999,33.999s33.999-15.251,33.999-33.999c0-5.741-1.436-11.151-3.959-15.898l38.245-38.246
	c3.905-3.905,3.905-10.237,0-14.142C98.378,405.802,92.046,405.802,88.142,409.706z M33.999,491.991
	c-7.72,0-13.999-6.28-13.999-13.999s6.28-13.999,13.999-13.999s13.999,6.28,13.999,13.999S41.718,491.991,33.999,491.991z"/>
<path d="M416.764,406.774c-2.63,0-5.21,1.069-7.07,2.93c-1.86,1.859-2.93,4.439-2.93,7.07c0,2.63,1.07,5.21,2.93,7.069
	c1.86,1.86,4.44,2.931,7.07,2.931c2.64,0,5.21-1.07,7.08-2.931c1.86-1.859,2.92-4.43,2.92-7.069c0-2.631-1.06-5.211-2.92-7.07
	C421.973,407.844,419.394,406.774,416.764,406.774z"/>
<path d="M478.001,443.993c-5.746,0-11.161,1.438-15.911,3.966l-16.894-16.894c-3.905-3.903-10.237-3.904-14.141,0
	c-3.905,3.905-3.906,10.237,0,14.142l16.9,16.901c-2.518,4.745-3.952,10.15-3.952,15.884c0,18.747,15.251,33.999,33.999,33.999
	S512,496.74,512,477.992S496.749,443.993,478.001,443.993z M478.001,491.991c-7.72,0-13.999-6.28-13.999-13.999
	s6.28-13.999,13.999-13.999c7.72,0,13.999,6.28,13.999,13.999S485.721,491.991,478.001,491.991z"/>
<path d="M33.999,68.007c5.741,0,11.151-1.436,15.898-3.959l38.245,38.244c1.953,1.953,4.512,2.929,7.071,2.929
	s5.119-0.976,7.071-2.929c3.905-3.905,3.905-10.237,0-14.142L64.038,49.907c2.523-4.748,3.959-10.158,3.959-15.898
	c0-18.747-15.251-33.999-33.999-33.999S0,15.261,0,34.009S15.251,68.007,33.999,68.007z M33.999,20.009
	c7.72,0,13.999,6.28,13.999,13.999s-6.28,13.999-13.999,13.999s-13.999-6.28-13.999-13.999S26.279,20.009,33.999,20.009z"/>
<g>
</g>
<g>
</g>
<g>
</g>
<g>
</g>
<g>
</g>
<g>
</g>
<g>
</g>
<g>
</g>
<g>
</g>
<g>
</g>
<g>
</g>
<g>
</g>
<g>
</g>
<g>
</g>
<g>
</g>
</svg>
