<svg height="512" viewBox="0 0 64 64" width="512" xmlns="http://www.w3.org/2000/svg"><g id="Fill_Outline" data-name="Fill Outline"><g id="Color"><g><path d="m3 27h58a0 0 0 0 1 0 0v34a0 0 0 0 1 0 0h-52a6 6 0 0 1 -6-6v-28a0 0 0 0 1 0 0z" fill="#57b7eb"/><path d="m23 27h-20v28a6 6 0 0 0 6 6h52v-8h-12a26 26 0 0 1 -26-26z" fill="#4891d3"/><path d="m9 17a6 6 0 0 0 -6 6v32a6 6 0 0 1 12 0v-32a6 6 0 0 0 -6-6z" fill="#aae1f9"/><g><path d="m38 15a8 8 0 1 0 -13 6.24v1.76h10v-1.76a7.984 7.984 0 0 0 3-6.24z" fill="#f9e109"/><rect fill="#d0d8da" height="4" rx="2" width="14" x="23" y="23"/><path d="m25 27h10a0 0 0 0 1 0 0v1a5 5 0 0 1 -5 5 5 5 0 0 1 -5-5v-1a0 0 0 0 1 0 0z" fill="#93999a"/><path d="m27 12a8.948 8.948 0 0 1 1.422-4.843 8 8 0 0 0 -3.422 14.083v1.76h10v-1.76c.107-.086.2-.184.306-.275a8.995 8.995 0 0 1 -8.306-8.965z" fill="#fcbc04"/><path d="m25 23a2 2 0 0 0 0 4h10a2 2 0 0 0 2-2h-10a2 2 0 0 1 -2-2z" fill="#93999a"/><path d="m33 29h1.9a4.988 4.988 0 0 0 .1-1v-1h-10v1a4.99 4.99 0 0 0 3.206 4.654 4.986 4.986 0 0 1 4.794-3.654z" fill="#656b76"/></g><path d="m43 45a6.065 6.065 0 0 0 -.1-1.094l2.032-1.174-2-3.464-2.032 1.174a5.965 5.965 0 0 0 -1.9-1.093v-2.349h-4v2.349a5.965 5.965 0 0 0 -1.9 1.093l-2.033-1.174-2 3.464 2.033 1.174a5.806 5.806 0 0 0 0 2.188l-2.032 1.174 2 3.464 2.032-1.174a5.965 5.965 0 0 0 1.9 1.093v2.349h4v-2.349a5.965 5.965 0 0 0 1.9-1.093l2.033 1.174 2-3.464-2.033-1.174a6.065 6.065 0 0 0 .1-1.094zm-6 2a2 2 0 1 1 2-2 2 2 0 0 1 -2 2z" fill="#f9e109"/><circle cx="23" cy="54" fill="#fcbc04" r="2"/><g><path d="m49 13h8v25h-8z" fill="#a1d51c" transform="matrix(-1 0 0 -1 106 51)"/><path d="m53 48 4-10h-8z" fill="#fcbc04"/><path d="m49 3h8a0 0 0 0 1 0 0v2a4 4 0 0 1 -4 4 4 4 0 0 1 -4-4v-2a0 0 0 0 1 0 0z" fill="#aae1f9" transform="matrix(-1 0 0 -1 106 12)"/><path d="m49 9h8v4h-8z" fill="#d0d8da" transform="matrix(-1 0 0 -1 106 22)"/><path d="m50.6 42h4.8l-2.4 6z" fill="#93999a"/><path d="m52.536 26.523a55.846 55.846 0 0 0 1.205 11.477h-4.741v-25h3.536z" fill="#7ab92d"/><path d="m54.726 42h-4.126l2.4 6-4-10h4.741c.282 1.344.605 2.679.985 4z" fill="#e59730"/><path d="m53 3a3.969 3.969 0 0 1 1.074.164 3.977 3.977 0 0 0 -1.538 3.129v2.707h-3.536v-2a4 4 0 0 1 4-4z" fill="#57b7eb"/><path d="m49 9h3.535v4h-3.535z" fill="#93999a"/><path d="m54.726 42c.092.32.194.637.292.956l-2.018 5.044-2.4-6z" fill="#656b76"/></g><path d="m10 33.194v-16.104a5.967 5.967 0 0 0 -7 5.91v32a6 6 0 0 1 12 0v-6.276a26.636 26.636 0 0 1 -5-15.53z" fill="#57b7eb"/><path d="m44 48a9.952 9.952 0 0 1 -5.521-1.665 1.993 1.993 0 1 1 -2.814-2.815 9.932 9.932 0 0 1 -1.505-3.785 5.981 5.981 0 0 0 -1.055.707l-2.033-1.174-2 3.464 2.028 1.174a5.806 5.806 0 0 0 0 2.188l-2.032 1.174 2 3.464 2.032-1.174a5.965 5.965 0 0 0 1.9 1.093v2.349h4v-2.349a5.965 5.965 0 0 0 1.9-1.093l2.033 1.174 1.573-2.732z" fill="#fcbc04"/><g fill="#e59730"><path d="m24 55a1.992 1.992 0 0 1 -1.82-2.82 2 2 0 1 0 2.64 2.64 1.99 1.99 0 0 1 -.82.18z"/><path d="m33.1 49.558a5.965 5.965 0 0 0 1.9 1.093v2.349h4v-2a26.014 26.014 0 0 1 -7.936-5.191c.014.094.023.189.04.281l-2.032 1.174 2 3.464z"/></g></g></g><g id="Outline_copy" data-name="Outline copy"><g fill="#323232"><path d="m40 28h5a1 1 0 0 0 0-2h-5a1 1 0 0 0 0 2z"/><path d="m61 26a1 1 0 0 0 -1 1v33h-51a5 5 0 1 1 5-5 1 1 0 0 0 2 0v-27h3a1 1 0 0 0 0-2h-3v-3a7 7 0 0 0 -14 0v32a7.008 7.008 0 0 0 7 7h52a1 1 0 0 0 1-1v-34a1 1 0 0 0 -1-1zm-57-3a5 5 0 0 1 10 0v27.1a6.991 6.991 0 0 0 -10 0z"/><path d="m48.071 38.372 1.6 4 2.4 6a1 1 0 0 0 1.858 0l2.4-6 1.6-4a.988.988 0 0 0 .063-.334c0-.013.008-.024.008-.038v-17a1 1 0 0 0 -2 0v16h-2v-23h2v3a1 1 0 0 0 2 0v-10a5 5 0 0 0 -10 0v31c0 .014.007.025.008.039a.987.987 0 0 0 .063.333zm4.006 4.628h1.846l-.923 2.308zm2.646-2h-3.446l-.8-2h5.046zm-2.723-4h-2v-23h2zm-2-25v-2h6v2zm0-5a3 3 0 0 1 6 0v1h-6z"/><path d="m24 21.7v.481a2.982 2.982 0 0 0 0 5.632v.187a6.007 6.007 0 0 0 4.138 5.7 8.3 8.3 0 0 1 -3.879 2.2l-1.525.382a4.931 4.931 0 0 0 1.196 9.718h2.07a1 1 0 0 0 0-2h-2.07a2.931 2.931 0 0 1 -.71-5.774l1.525-.381a10.3 10.3 0 0 0 5.779-3.871 6.005 6.005 0 0 0 5.476-5.974v-.184a2.982 2.982 0 0 0 0-5.632v-.484a8.972 8.972 0 0 0 1.747-11.269 1 1 0 0 0 -1.723 1.017 6.972 6.972 0 0 1 -1.65 9.009 1 1 0 0 0 -.374.78v.763h-.883l.877-7.89a1 1 0 0 0 -1.31-1.059l-2.684.895-2.684-.895a1 1 0 0 0 -1.31 1.059l.877 7.89h-.883v-.76a1 1 0 0 0 -.374-.78 6.993 6.993 0 0 1 7.923-11.485 1 1 0 1 0 1.017-1.723 8.994 8.994 0 0 0 -10.566 14.448zm6 10.3a4 4 0 0 1 -4-4h8a4 4 0 0 1 -4 4zm-1.833-16.557 1.517.506a1 1 0 0 0 .632 0l1.517-.506-.728 6.557h-2.205zm-.167 8.557h7a1 1 0 0 1 0 2h-10a1 1 0 0 1 0-2z"/><circle cx="18" cy="15" r="1"/><circle cx="42" cy="15" r="1"/><circle cx="30" cy="3" r="1"/><path d="m19.108 9.866a1 1 0 1 0 -.366-1.366 1 1 0 0 0 .366 1.366z"/><path d="m39.892 21.866a1 1 0 1 0 -.366-1.366 1 1 0 0 0 .366 1.366z"/><circle cx="36" cy="4.608" r="1" transform="matrix(.966 -.259 .259 .966 .034 9.475)"/><path d="m40.892 9.866a1 1 0 1 0 -1.366-.366 1 1 0 0 0 1.366.366z"/><path d="m20.474 20.5a1 1 0 1 0 -.366 1.366 1 1 0 0 0 .366-1.366z"/><path d="m24.5 5.474a1 1 0 1 0 -1.366-.366 1 1 0 0 0 1.366.366z"/><path d="m35 54h4a1 1 0 0 0 1-1v-1.681a6.87 6.87 0 0 0 .974-.561l1.454.84a1 1 0 0 0 1.366-.366l2-3.464a1 1 0 0 0 -.366-1.366l-1.452-.839c.016-.189.024-.376.024-.563s-.008-.374-.024-.563l1.452-.839a1 1 0 0 0 .366-1.366l-2-3.464a1 1 0 0 0 -1.366-.366l-1.454.84a6.87 6.87 0 0 0 -.974-.561v-1.681a1 1 0 0 0 -1-1h-4a1 1 0 0 0 -1 1v1.681a6.87 6.87 0 0 0 -.974.561l-1.454-.84a1 1 0 0 0 -1.366.366l-2 3.464a1 1 0 0 0 .366 1.366l1.452.839c-.016.189-.024.376-.024.563s.008.374.024.563l-1.452.839a1 1 0 1 0 1 1.732l2.028-1.174a1 1 0 0 0 .484-1.047 4.78 4.78 0 0 1 0-1.826 1 1 0 0 0 -.484-1.047l-1.166-.674 1-1.732 1.166.674a1 1 0 0 0 1.15-.106 4.994 4.994 0 0 1 1.58-.911 1 1 0 0 0 .67-.942v-1.349h2v1.349a1 1 0 0 0 .666.942 4.994 4.994 0 0 1 1.58.911 1 1 0 0 0 1.15.106l1.166-.674 1 1.732-1.162.674a1 1 0 0 0 -.484 1.047 4.78 4.78 0 0 1 0 1.826 1 1 0 0 0 .484 1.047l1.166.674-1 1.732-1.166-.674a1 1 0 0 0 -1.15.106 4.994 4.994 0 0 1 -1.58.911 1 1 0 0 0 -.666.942v1.349h-2.004v-1.349a1 1 0 0 0 -.666-.942 4.994 4.994 0 0 1 -1.58-.911 1 1 0 0 0 -1.15-.106l-2.032 1.174a1 1 0 1 0 1 1.732l1.454-.84a6.87 6.87 0 0 0 .974.561v1.681a1 1 0 0 0 1 1z"/><path d="m40 45a3 3 0 1 0 -3 3 3 3 0 0 0 3-3zm-4 0a1 1 0 1 1 1 1 1 1 0 0 1 -1-1z"/><path d="m38 58h12a4 4 0 0 0 4-4v-2a1 1 0 0 0 -2 0v2a2 2 0 0 1 -2 2h-12a1 1 0 0 0 0 2z"/><path d="m20 54a3 3 0 1 0 3-3 3 3 0 0 0 -3 3zm4 0a1 1 0 1 1 -1-1 1 1 0 0 1 1 1z"/></g></g></g></svg>