<?xml version="1.0" encoding="iso-8859-1"?>
<!-- Generator: Adobe Illustrator 19.0.0, SVG Export Plug-In . SVG Version: 6.00 Build 0)  -->
<svg xmlns="http://www.w3.org/2000/svg" xmlns:xlink="http://www.w3.org/1999/xlink" version="1.1" id="Layer_1" x="0px" y="0px" viewBox="0 0 512 512" style="enable-background:new 0 0 512 512;" xml:space="preserve" width="512" height="512">
<g>
	<g>
		<path style="fill:#80C9FF;" d="M408.861,225.363v124.172c0,63.997-52.063,116.061-116.061,116.061s-116.07-52.063-116.07-116.061    v-25.939l-19.452-16.21l-19.452,16.21v25.939c0,85.443,69.522,154.965,154.975,154.965c85.443,0,154.965-69.522,154.965-154.965    V225.363H408.861z"/>
		<rect x="137.826" y="229.633" style="fill:#A49EA6;" width="38.904" height="93.963"/>
		<g>
			<path style="fill:#E0D8E3;" d="M157.281,251.998c-19.085,0-37.647-7.861-50.928-21.567l-67.39-69.548     c-16.707-15.649-26.276-37.706-26.276-60.612c0-45.792,37.254-83.045,83.045-83.045c10.743,0,19.452,8.709,19.452,19.452     S106.476,56.13,95.733,56.13c-24.34,0-44.141,19.802-44.141,44.141c0,12.277,5.172,24.096,14.191,32.425     c0.264,0.244,0.521,0.495,0.771,0.753l67.739,69.909c5.995,6.187,14.373,9.735,22.988,9.735c8.614,0,16.993-3.548,22.988-9.735     l67.739-69.909c0.25-0.258,0.508-0.51,0.772-0.753c9.018-8.33,14.191-20.148,14.191-32.425c0-24.34-19.802-44.141-44.141-44.141     c-10.743,0-19.452-8.709-19.452-19.452s8.709-19.452,19.452-19.452c45.791,0,83.045,37.254,83.045,83.045     c0,22.906-9.569,44.962-26.276,60.611l-67.39,69.548C194.928,244.137,176.365,251.998,157.281,251.998z"/>
		</g>
		<path style="fill:#A49EA6;" d="M92.64,7.5L92.64,7.5c16.115,0,29.178,13.063,29.178,29.178v0    c0,16.115-13.063,29.178-29.178,29.178h0c-3.03,0-5.487-2.456-5.487-5.487V12.987C87.154,9.956,89.61,7.5,92.64,7.5z"/>
		<path style="fill:#6DAAD9;" d="M408.861,295.298c6.297,1.233,12.799,1.887,19.452,1.887s13.155-0.654,19.452-1.887v-69.935    h-38.904V295.298z"/>
		<circle style="fill:#E0D8E3;" cx="428.313" cy="196.185" r="71"/>
		<circle style="fill:#A49EA6;" cx="428.313" cy="196.185" r="33.068"/>
		<path style="fill:#A49EA6;" d="M221.921,7.5L221.921,7.5c-16.115,0-29.178,13.063-29.178,29.178v0    c0,16.115,13.063,29.178,29.178,29.178h0c3.03,0,5.487-2.456,5.487-5.487V12.987C227.408,9.956,224.951,7.5,221.921,7.5z"/>
	</g>
	<g>
		<path d="M387.744,196.185c0,22.37,18.199,40.569,40.568,40.569c22.37,0,40.569-18.199,40.569-40.569    c0-22.369-18.199-40.568-40.569-40.568C405.943,155.616,387.744,173.815,387.744,196.185z M453.881,196.185    c0,14.099-11.47,25.569-25.569,25.569c-14.098,0-25.568-11.47-25.568-25.569c0-14.098,11.47-25.568,25.568-25.568    C442.411,170.616,453.881,182.086,453.881,196.185z"/>
		<path d="M489.888,160.066c-3.772,1.711-5.443,6.156-3.732,9.928c3.753,8.274,5.656,17.085,5.656,26.19    c0,29.163-19.767,53.78-46.602,61.199c-10.79,2.983-23.022,3.265-33.797,0c-26.834-7.419-46.602-32.037-46.602-61.199    c0-35.014,28.486-63.5,63.5-63.5c15.297,0,30.083,5.533,41.635,15.58c3.125,2.718,7.863,2.388,10.581-0.737    c2.718-3.125,2.388-7.863-0.738-10.581c-14.282-12.421-32.564-19.262-51.479-19.262c-43.285,0-78.5,35.215-78.5,78.5    c0,33.82,21.499,62.714,51.548,73.732v79.618c0,59.86-48.7,108.561-108.561,108.561c-59.866,0-108.57-48.7-108.57-108.561v-25.939    v-68.912c11.01-4.039,21.11-10.515,29.365-19.034l67.266-69.421c18.123-17.046,28.514-41.076,28.514-65.958    c0-22.518-8.351-44.115-23.515-60.814c-13.549-14.92-31.501-24.804-51.095-28.301C233.87,4.861,228.459,0,221.921,0    c-20.225,0-36.678,16.454-36.678,36.678c0,20.225,16.453,36.678,36.678,36.678c4.897,0,9.167-2.726,11.379-6.739    c13.197,5.687,22.17,18.827,22.17,33.654c0,10.191-4.293,20.001-11.781,26.917c-0.364,0.336-68.786,70.93-68.807,70.951    c-9.494,9.798-25.713,9.795-35.204,0c0,0-68.44-70.612-68.809-70.952c-7.486-6.915-11.779-16.725-11.779-26.916    c0-14.827,8.974-27.968,22.17-33.655c2.212,4.013,6.482,6.739,11.379,6.739c20.224,0,36.678-16.454,36.678-36.678    C129.319,16.454,112.865,0,92.64,0c-6.538,0-11.948,4.861-12.842,11.156c-19.594,3.497-37.547,13.38-51.096,28.301    C13.538,56.156,5.187,77.754,5.187,100.271c0,24.882,10.391,48.912,28.514,65.958l67.266,69.42    c8.253,8.517,18.351,14.992,29.358,19.031v68.914v25.939c0,30.988,8.801,61.147,25.451,87.214    c2.23,3.491,6.868,4.513,10.358,2.284c3.491-2.23,4.513-6.867,2.284-10.358c-15.107-23.652-23.092-51.018-23.092-79.14v-18.439    h23.904v18.439c0,68.131,55.434,123.561,123.57,123.561c68.132,0,123.561-55.429,123.561-123.561l0-75.759    c7.889,1.214,16.018,1.214,23.904,0v75.759C440.265,430.848,374.113,497,292.8,497c-40.614,0-78.48-16.229-106.624-45.697    c-2.861-2.996-7.608-3.105-10.604-0.244c-2.995,2.861-3.104,7.608-0.244,10.604C206.329,494.123,248.048,512,292.8,512    c89.583,0,162.465-72.881,162.465-162.465v-79.618c30.049-11.019,51.548-39.912,51.548-73.732c0-11.256-2.354-22.152-6.996-32.386    C498.106,160.026,493.661,158.355,489.888,160.066z M219.908,58.264c-11.013-1.019-19.665-10.311-19.665-21.586    c0-11.274,8.651-20.566,19.665-21.585V58.264z M94.654,15.093c11.014,1.019,19.665,10.311,19.665,21.585    c0,11.275-8.651,20.567-19.665,21.586V15.093z M44.091,155.41C28.9,141.18,20.187,121.083,20.187,100.271    c0-18.781,6.968-36.798,19.62-50.73c10.667-11.747,24.59-19.77,39.847-23.091v24.748C58.72,58.06,44.091,77.795,44.091,100.271    c0,14.363,6.051,28.19,16.601,37.934c0.162,0.149,68.193,70.351,68.215,70.373c15.299,15.789,41.454,15.784,56.749,0    c0,0,68.052-70.222,68.213-70.372c10.551-9.745,16.602-23.571,16.602-37.935c0-22.476-14.629-42.211-35.563-49.074V26.451    c15.256,3.321,29.179,11.343,39.847,23.09c12.652,13.933,19.62,31.949,19.62,50.73c0,20.812-8.712,40.909-23.904,55.138    c-0.088,0.083-0.175,0.167-0.259,0.254l-67.389,69.548c-7.741,7.988-17.493,13.738-28.068,16.787    c-0.031,0.008-0.063,0.012-0.093,0.021c-11.311,3.411-23.44,3.123-34.768-0.002c-0.028-0.008-0.057-0.011-0.085-0.019    c-10.575-3.048-20.328-8.798-28.069-16.787C111.74,225.212,44.179,155.492,44.091,155.41z M145.325,316.096l0-57.532    c7.914,1.238,15.99,1.234,23.904,0.001v57.531H145.325z"/>
	</g>
</g>















</svg>
