<svg width="800" height="800" viewBox="0 0 800 800" fill="none" xmlns="http://www.w3.org/2000/svg">
<g clip-path="url(#clip0_97_3116)">
<mask id="path-1-outside-1_97_3116" maskUnits="userSpaceOnUse" x="28.2513" y="10" width="664" height="790" fill="black">
<rect fill="white" x="28.2513" y="10" width="664" height="790"/>
<path d="M288.723 249.609C283.91 273.033 280.494 290.303 280.657 290.957C280.855 291.747 312.386 316.693 338.158 336.957C338.581 335.898 338.826 335.198 338.966 334.666C338.994 334.689 339.022 334.711 339.051 334.734C339.039 334.776 339.027 334.818 339.016 334.86C338.131 338.075 337.086 340.956 335.882 343.663C332.228 342.334 329.889 342.107 329.393 343.394C328.553 340.657 319.023 342.448 312.304 343.711C310.9 343.975 309.618 344.216 308.565 344.387C311.529 344.387 321.773 347.035 321.773 350.345C315.677 344.056 289.26 349.352 287.228 352.993C290.276 351.008 308.565 352.331 308.565 355.31C307.549 354.647 292.816 354.647 291.8 357.626C294.34 355.971 299.928 357.626 299.928 360.936C293.832 356.633 273.004 362.26 269.956 365.239C277.576 363.915 284.18 370.203 282.656 370.866C281.612 371.319 278.854 371.078 276.174 370.844C273.011 370.567 269.956 370.301 269.956 371.197C271.988 370.58 279.1 373.844 274.02 375.83C266.4 372.851 249.635 376.161 249.635 384.767C253.699 379.471 271.48 383.443 265.892 383.112C260.303 382.781 252.175 389.731 253.699 389.731C255.223 388.407 260.811 388.076 260.811 389.731C239.983 394.365 243.031 407.604 244.047 406.28C245.063 404.956 252.175 399.992 252.175 403.963C252.175 405.692 250.761 406.062 248.871 406.556C246.419 407.198 243.165 408.048 241.157 412.347C243.43 410.206 246.536 410.751 248.416 411.081C248.927 411.171 249.347 411.245 249.635 411.245L249.39 411.405C246.507 413.28 242.311 416.01 246.755 420.514C247.501 416.868 249.903 417.22 252.936 417.664C254.034 417.825 255.215 417.998 256.43 417.998C253.89 419.653 256.43 422.632 258.97 423.625C260.811 419.736 267.924 419.347 269.956 421.505C269.13 421.976 268.075 422.433 266.955 422.917C262.558 424.82 257.168 427.152 260.811 432.428C263.352 428.456 267.924 429.118 267.924 430.111C263.86 433.751 268.432 444.012 274.02 445.998C275.036 443.681 278.084 440.702 281.64 441.695C277.576 443.019 274.02 449.307 281.64 453.61C285.704 449.638 290.784 448.314 295.864 448.314C295.864 451.244 293.1 453.093 287.979 456.519L287.976 456.521L287.973 456.523C286.153 457.741 284.036 459.157 281.64 460.892C298.264 462.032 313.381 448.199 316.285 444.97C315.663 446.05 314.729 448.284 316.536 449.765C298.94 479.028 277.989 515.924 275.5 526.5C275.553 526.448 275.607 526.396 275.66 526.344C273.348 533.55 272.437 541.432 274.157 549.459C275.647 556.41 278.011 564.584 280.069 571.425L265.415 611.008C264.605 609.771 263.78 608.507 262.95 607.236L262.949 607.235C256.694 597.654 250.223 587.742 248.657 586.959C246.755 586.008 241.638 584.454 237.892 583.317L237.884 583.314L237.877 583.312C235.721 582.658 234.022 582.142 233.657 581.959C233.4 581.831 232.252 581.108 230.645 580.096L230.632 580.089L230.63 580.087C225.98 577.16 217.513 571.83 215.657 571.459C213.657 571.059 208.49 572.626 206.157 573.459C203.657 572.792 198.157 571.459 196.157 571.459C194.478 571.459 192.094 572.399 190.485 573.095C185.045 563.451 179.744 554.017 174.918 545.427L174.916 545.423L174.914 545.42C168.596 534.175 163.092 524.379 159.157 517.459C155.49 509.459 147.656 490.459 145.656 478.458C144.05 468.819 138.108 454.638 133.136 445.069L137.604 439.295L146.764 446.382L155.991 449.016L156.032 434.403L146.189 426.787L166.697 418.436L169.238 403.505L189.043 401.931L255.043 267.129L141.127 364.858L144.576 384.423L130.761 390.631L127.826 412.579L117.982 404.963L103.848 408.671L108.714 416.942L117.169 423.484L112.014 430.147L91.6561 423.458C90.9087 424.803 89.9735 428.321 91.5205 432.495C90.7487 432.488 90.3123 432.683 90.601 436.003L91.0805 436.796C90.5597 436.898 89.9299 436.928 89.2339 436.915C89.0191 436.602 88.808 436.298 88.601 436.002C81.601 434.502 79.401 435.702 78.601 436.502C77.4851 437.618 78.1274 444.739 78.5019 448.892C78.5381 449.292 78.5717 449.665 78.601 450.002L78.6925 450.119C78.696 450.571 78.6853 451.019 78.656 451.458C78.656 451.458 78.4724 451.504 78.1554 451.591C77.9646 451.32 77.7797 451.057 77.601 450.802C75.601 451.002 70.101 452.835 69.1009 454.502C68.2042 455.996 68.2605 458.801 68.522 461.635C68.6561 464.792 69.156 467.958 69.156 467.958C69.156 467.958 69.1441 467.958 69.1215 467.959C69.1064 467.959 69.0866 467.959 69.0625 467.96C68.7545 467.652 68.4342 467.333 68.1009 467.002C66.9669 467.402 66.228 467.594 65.6984 467.732C64.9048 467.938 64.5806 468.022 64.1009 468.502C63.3009 469.302 62.7675 472.669 63.1009 476.502C63.1009 476.502 63.6356 477.439 64.481 478.813C65.6191 481.076 67.1022 483.706 68.5998 486.215L69.0854 485.586L69.1026 485.608L56.107 502.404L49.2174 503.832L49.3126 503.906L48.2513 519.982L61.4989 530.232L76.7935 525.169L76.8888 525.242L76.5416 518.215L84.816 507.52L84.8524 507.579C87.6943 512.126 92.3311 519.546 99.1562 522.959C109.156 527.959 119.656 535.959 123.156 538.959C124.047 539.722 128.528 549.543 135.242 564.259C154.925 607.397 193.797 692.591 217.657 714.96C229.053 725.643 233.657 729.96 237.657 731.46C240.533 732.538 267.439 710.103 283.083 695.36L283.081 695.369L283.1 695.35C289.54 699.027 296.834 703.243 304.692 707.786L304.739 707.812L304.75 707.819L304.751 707.82C347.65 732.618 407.332 767.117 436.766 776.688C440.31 777.84 443.415 778.631 446 779C457.115 780.588 482.853 770.981 513.174 756.906C514 756.523 514.83 756.136 515.663 755.746C520.496 753.482 525.437 751.111 530.447 748.66C535.082 746.391 539.776 744.054 544.497 741.668C544.548 741.642 544.599 741.616 544.651 741.59C589.665 718.837 637.085 691.748 659.636 678.594C663.603 676.28 665.444 671.565 664.139 667.162C644.337 600.312 623.917 530.112 611.863 485.862C615.45 487.496 619.262 488.369 623.159 487.958C620.798 485.335 618.712 483.193 616.92 481.353C611.88 476.178 609.159 473.384 609.159 468.958C614.159 468.958 619.159 470.958 623.159 476.958C630.659 470.458 627.159 460.958 623.159 458.958C626.659 457.458 629.659 461.958 630.659 465.458C636.159 462.458 640.659 446.958 636.659 441.458C636.659 439.958 641.159 438.958 643.66 444.958C647.246 436.989 641.94 433.465 637.613 430.591C636.511 429.859 635.472 429.169 634.659 428.458C648.088 428.458 649.096 431.678 651.804 440.324C651.919 440.692 652.037 441.07 652.16 441.458C654.66 439.958 657.16 435.458 654.66 432.958C659.16 432.958 669.66 437.458 670.66 444.958C675.16 437.958 668.16 421.458 654.66 412.958C661.66 412.958 665.16 412.958 670.66 419.458C668.7 413.018 663.133 410.184 658.614 407.884C655.064 406.076 652.16 404.598 652.16 401.958C652.16 395.958 659.16 403.458 660.16 405.458C661.16 407.458 664.16 387.458 643.66 380.458C643.66 377.958 649.16 378.458 650.66 380.458C652.16 380.458 644.16 369.958 638.659 370.458C633.159 370.958 650.66 364.958 654.66 372.958C654.66 359.957 638.159 354.958 630.659 359.458C625.659 356.457 632.659 351.526 634.659 352.458C634.659 351.104 631.652 351.507 628.539 351.925C625.901 352.279 623.187 352.643 622.159 351.958C620.659 350.957 627.159 341.457 634.659 343.457C631.659 338.957 611.159 330.457 605.159 336.957C605.159 331.957 610.659 329.457 613.159 331.957C612.159 327.457 597.659 327.457 596.659 328.457C596.659 323.957 614.659 321.96 617.659 324.957C615.659 319.457 589.659 311.457 583.659 320.957C583.659 320.334 583.816 319.725 584.096 319.139C585.347 317.877 586.617 316.592 587.9 315.288C591.022 313.251 595 311.957 596.659 311.957C595.623 311.698 594.364 311.335 592.984 310.937L592.98 310.936L592.979 310.935L592.338 310.751C617.185 285.206 645.16 253.881 645.16 240.457C645.16 229.042 626.314 189.358 607.132 152.558C609.29 149.67 611.315 146.947 613.159 144.456C613.826 143.456 614.059 142.056 609.659 144.456C608.963 144.836 607.123 145.863 604.421 147.379C587.545 115.287 571.084 86.566 567.659 82.4558C562.987 76.8495 541.242 70.6611 522.123 65.2201L522.122 65.2198C510.548 61.9263 499.938 58.9066 494.659 56.4556C491.68 55.0726 487.545 52.9099 482.777 50.416C465.005 41.1207 438.437 27.2247 430.158 31.9554C419.658 37.9555 321.158 104.456 317.157 117.956C314.833 125.801 302.716 182.272 293.07 228.599C278.234 220.238 266.093 213.409 264.027 212.282C259.627 209.882 259.861 211.282 260.527 212.282C268.022 222.403 278.502 236.356 288.723 249.609Z"/>
</mask>
<path d="M288.723 249.609C283.91 273.033 280.494 290.303 280.657 290.957C280.855 291.747 312.386 316.693 338.158 336.957C338.581 335.898 338.826 335.198 338.966 334.666C338.994 334.689 339.022 334.711 339.051 334.734C339.039 334.776 339.027 334.818 339.016 334.86C338.131 338.075 337.086 340.956 335.882 343.663C332.228 342.334 329.889 342.107 329.393 343.394C328.553 340.657 319.023 342.448 312.304 343.711C310.9 343.975 309.618 344.216 308.565 344.387C311.529 344.387 321.773 347.035 321.773 350.345C315.677 344.056 289.26 349.352 287.228 352.993C290.276 351.008 308.565 352.331 308.565 355.31C307.549 354.647 292.816 354.647 291.8 357.626C294.34 355.971 299.928 357.626 299.928 360.936C293.832 356.633 273.004 362.26 269.956 365.239C277.576 363.915 284.18 370.203 282.656 370.866C281.612 371.319 278.854 371.078 276.174 370.844C273.011 370.567 269.956 370.301 269.956 371.197C271.988 370.58 279.1 373.844 274.02 375.83C266.4 372.851 249.635 376.161 249.635 384.767C253.699 379.471 271.48 383.443 265.892 383.112C260.303 382.781 252.175 389.731 253.699 389.731C255.223 388.407 260.811 388.076 260.811 389.731C239.983 394.365 243.031 407.604 244.047 406.28C245.063 404.956 252.175 399.992 252.175 403.963C252.175 405.692 250.761 406.062 248.871 406.556C246.419 407.198 243.165 408.048 241.157 412.347C243.43 410.206 246.536 410.751 248.416 411.081C248.927 411.171 249.347 411.245 249.635 411.245L249.39 411.405C246.507 413.28 242.311 416.01 246.755 420.514C247.501 416.868 249.903 417.22 252.936 417.664C254.034 417.825 255.215 417.998 256.43 417.998C253.89 419.653 256.43 422.632 258.97 423.625C260.811 419.736 267.924 419.347 269.956 421.505C269.13 421.976 268.075 422.433 266.955 422.917C262.558 424.82 257.168 427.152 260.811 432.428C263.352 428.456 267.924 429.118 267.924 430.111C263.86 433.751 268.432 444.012 274.02 445.998C275.036 443.681 278.084 440.702 281.64 441.695C277.576 443.019 274.02 449.307 281.64 453.61C285.704 449.638 290.784 448.314 295.864 448.314C295.864 451.244 293.1 453.093 287.979 456.519L287.976 456.521L287.973 456.523C286.153 457.741 284.036 459.157 281.64 460.892C298.264 462.032 313.381 448.199 316.285 444.97C315.663 446.05 314.729 448.284 316.536 449.765C298.94 479.028 277.989 515.924 275.5 526.5C275.553 526.448 275.607 526.396 275.66 526.344C273.348 533.55 272.437 541.432 274.157 549.459C275.647 556.41 278.011 564.584 280.069 571.425L265.415 611.008C264.605 609.771 263.78 608.507 262.95 607.236L262.949 607.235C256.694 597.654 250.223 587.742 248.657 586.959C246.755 586.008 241.638 584.454 237.892 583.317L237.884 583.314L237.877 583.312C235.721 582.658 234.022 582.142 233.657 581.959C233.4 581.831 232.252 581.108 230.645 580.096L230.632 580.089L230.63 580.087C225.98 577.16 217.513 571.83 215.657 571.459C213.657 571.059 208.49 572.626 206.157 573.459C203.657 572.792 198.157 571.459 196.157 571.459C194.478 571.459 192.094 572.399 190.485 573.095C185.045 563.451 179.744 554.017 174.918 545.427L174.916 545.423L174.914 545.42C168.596 534.175 163.092 524.379 159.157 517.459C155.49 509.459 147.656 490.459 145.656 478.458C144.05 468.819 138.108 454.638 133.136 445.069L137.604 439.295L146.764 446.382L155.991 449.016L156.032 434.403L146.189 426.787L166.697 418.436L169.238 403.505L189.043 401.931L255.043 267.129L141.127 364.858L144.576 384.423L130.761 390.631L127.826 412.579L117.982 404.963L103.848 408.671L108.714 416.942L117.169 423.484L112.014 430.147L91.6561 423.458C90.9087 424.803 89.9735 428.321 91.5205 432.495C90.7487 432.488 90.3123 432.683 90.601 436.003L91.0805 436.796C90.5597 436.898 89.9299 436.928 89.2339 436.915C89.0191 436.602 88.808 436.298 88.601 436.002C81.601 434.502 79.401 435.702 78.601 436.502C77.4851 437.618 78.1274 444.739 78.5019 448.892C78.5381 449.292 78.5717 449.665 78.601 450.002L78.6925 450.119C78.696 450.571 78.6853 451.019 78.656 451.458C78.656 451.458 78.4724 451.504 78.1554 451.591C77.9646 451.32 77.7797 451.057 77.601 450.802C75.601 451.002 70.101 452.835 69.1009 454.502C68.2042 455.996 68.2605 458.801 68.522 461.635C68.6561 464.792 69.156 467.958 69.156 467.958C69.156 467.958 69.1441 467.958 69.1215 467.959C69.1064 467.959 69.0866 467.959 69.0625 467.96C68.7545 467.652 68.4342 467.333 68.1009 467.002C66.9669 467.402 66.228 467.594 65.6984 467.732C64.9048 467.938 64.5806 468.022 64.1009 468.502C63.3009 469.302 62.7675 472.669 63.1009 476.502C63.1009 476.502 63.6356 477.439 64.481 478.813C65.6191 481.076 67.1022 483.706 68.5998 486.215L69.0854 485.586L69.1026 485.608L56.107 502.404L49.2174 503.832L49.3126 503.906L48.2513 519.982L61.4989 530.232L76.7935 525.169L76.8888 525.242L76.5416 518.215L84.816 507.52L84.8524 507.579C87.6943 512.126 92.3311 519.546 99.1562 522.959C109.156 527.959 119.656 535.959 123.156 538.959C124.047 539.722 128.528 549.543 135.242 564.259C154.925 607.397 193.797 692.591 217.657 714.96C229.053 725.643 233.657 729.96 237.657 731.46C240.533 732.538 267.439 710.103 283.083 695.36L283.081 695.369L283.1 695.35C289.54 699.027 296.834 703.243 304.692 707.786L304.739 707.812L304.75 707.819L304.751 707.82C347.65 732.618 407.332 767.117 436.766 776.688C440.31 777.84 443.415 778.631 446 779C457.115 780.588 482.853 770.981 513.174 756.906C514 756.523 514.83 756.136 515.663 755.746C520.496 753.482 525.437 751.111 530.447 748.66C535.082 746.391 539.776 744.054 544.497 741.668C544.548 741.642 544.599 741.616 544.651 741.59C589.665 718.837 637.085 691.748 659.636 678.594C663.603 676.28 665.444 671.565 664.139 667.162C644.337 600.312 623.917 530.112 611.863 485.862C615.45 487.496 619.262 488.369 623.159 487.958C620.798 485.335 618.712 483.193 616.92 481.353C611.88 476.178 609.159 473.384 609.159 468.958C614.159 468.958 619.159 470.958 623.159 476.958C630.659 470.458 627.159 460.958 623.159 458.958C626.659 457.458 629.659 461.958 630.659 465.458C636.159 462.458 640.659 446.958 636.659 441.458C636.659 439.958 641.159 438.958 643.66 444.958C647.246 436.989 641.94 433.465 637.613 430.591C636.511 429.859 635.472 429.169 634.659 428.458C648.088 428.458 649.096 431.678 651.804 440.324C651.919 440.692 652.037 441.07 652.16 441.458C654.66 439.958 657.16 435.458 654.66 432.958C659.16 432.958 669.66 437.458 670.66 444.958C675.16 437.958 668.16 421.458 654.66 412.958C661.66 412.958 665.16 412.958 670.66 419.458C668.7 413.018 663.133 410.184 658.614 407.884C655.064 406.076 652.16 404.598 652.16 401.958C652.16 395.958 659.16 403.458 660.16 405.458C661.16 407.458 664.16 387.458 643.66 380.458C643.66 377.958 649.16 378.458 650.66 380.458C652.16 380.458 644.16 369.958 638.659 370.458C633.159 370.958 650.66 364.958 654.66 372.958C654.66 359.957 638.159 354.958 630.659 359.458C625.659 356.457 632.659 351.526 634.659 352.458C634.659 351.104 631.652 351.507 628.539 351.925C625.901 352.279 623.187 352.643 622.159 351.958C620.659 350.957 627.159 341.457 634.659 343.457C631.659 338.957 611.159 330.457 605.159 336.957C605.159 331.957 610.659 329.457 613.159 331.957C612.159 327.457 597.659 327.457 596.659 328.457C596.659 323.957 614.659 321.96 617.659 324.957C615.659 319.457 589.659 311.457 583.659 320.957C583.659 320.334 583.816 319.725 584.096 319.139C585.347 317.877 586.617 316.592 587.9 315.288C591.022 313.251 595 311.957 596.659 311.957C595.623 311.698 594.364 311.335 592.984 310.937L592.98 310.936L592.979 310.935L592.338 310.751C617.185 285.206 645.16 253.881 645.16 240.457C645.16 229.042 626.314 189.358 607.132 152.558C609.29 149.67 611.315 146.947 613.159 144.456C613.826 143.456 614.059 142.056 609.659 144.456C608.963 144.836 607.123 145.863 604.421 147.379C587.545 115.287 571.084 86.566 567.659 82.4558C562.987 76.8495 541.242 70.6611 522.123 65.2201L522.122 65.2198C510.548 61.9263 499.938 58.9066 494.659 56.4556C491.68 55.0726 487.545 52.9099 482.777 50.416C465.005 41.1207 438.437 27.2247 430.158 31.9554C419.658 37.9555 321.158 104.456 317.157 117.956C314.833 125.801 302.716 182.272 293.07 228.599C278.234 220.238 266.093 213.409 264.027 212.282C259.627 209.882 259.861 211.282 260.527 212.282C268.022 222.403 278.502 236.356 288.723 249.609Z" fill="white"/>
<path d="M288.723 249.609C283.91 273.033 280.494 290.303 280.657 290.957C280.855 291.747 312.386 316.693 338.158 336.957C338.581 335.898 338.826 335.198 338.966 334.666C338.994 334.689 339.022 334.711 339.051 334.734C339.039 334.776 339.027 334.818 339.016 334.86C338.131 338.075 337.086 340.956 335.882 343.663C332.228 342.334 329.889 342.107 329.393 343.394C328.553 340.657 319.023 342.448 312.304 343.711C310.9 343.975 309.618 344.216 308.565 344.387C311.529 344.387 321.773 347.035 321.773 350.345C315.677 344.056 289.26 349.352 287.228 352.993C290.276 351.008 308.565 352.331 308.565 355.31C307.549 354.647 292.816 354.647 291.8 357.626C294.34 355.971 299.928 357.626 299.928 360.936C293.832 356.633 273.004 362.26 269.956 365.239C277.576 363.915 284.18 370.203 282.656 370.866C281.612 371.319 278.854 371.078 276.174 370.844C273.011 370.567 269.956 370.301 269.956 371.197C271.988 370.58 279.1 373.844 274.02 375.83C266.4 372.851 249.635 376.161 249.635 384.767C253.699 379.471 271.48 383.443 265.892 383.112C260.303 382.781 252.175 389.731 253.699 389.731C255.223 388.407 260.811 388.076 260.811 389.731C239.983 394.365 243.031 407.604 244.047 406.28C245.063 404.956 252.175 399.992 252.175 403.963C252.175 405.692 250.761 406.062 248.871 406.556C246.419 407.198 243.165 408.048 241.157 412.347C243.43 410.206 246.536 410.751 248.416 411.081C248.927 411.171 249.347 411.245 249.635 411.245L249.39 411.405C246.507 413.28 242.311 416.01 246.755 420.514C247.501 416.868 249.903 417.22 252.936 417.664C254.034 417.825 255.215 417.998 256.43 417.998C253.89 419.653 256.43 422.632 258.97 423.625C260.811 419.736 267.924 419.347 269.956 421.505C269.13 421.976 268.075 422.433 266.955 422.917C262.558 424.82 257.168 427.152 260.811 432.428C263.352 428.456 267.924 429.118 267.924 430.111C263.86 433.751 268.432 444.012 274.02 445.998C275.036 443.681 278.084 440.702 281.64 441.695C277.576 443.019 274.02 449.307 281.64 453.61C285.704 449.638 290.784 448.314 295.864 448.314C295.864 451.244 293.1 453.093 287.979 456.519L287.976 456.521L287.973 456.523C286.153 457.741 284.036 459.157 281.64 460.892C298.264 462.032 313.381 448.199 316.285 444.97C315.663 446.05 314.729 448.284 316.536 449.765C298.94 479.028 277.989 515.924 275.5 526.5C275.553 526.448 275.607 526.396 275.66 526.344C273.348 533.55 272.437 541.432 274.157 549.459C275.647 556.41 278.011 564.584 280.069 571.425L265.415 611.008C264.605 609.771 263.78 608.507 262.95 607.236L262.949 607.235C256.694 597.654 250.223 587.742 248.657 586.959C246.755 586.008 241.638 584.454 237.892 583.317L237.884 583.314L237.877 583.312C235.721 582.658 234.022 582.142 233.657 581.959C233.4 581.831 232.252 581.108 230.645 580.096L230.632 580.089L230.63 580.087C225.98 577.16 217.513 571.83 215.657 571.459C213.657 571.059 208.49 572.626 206.157 573.459C203.657 572.792 198.157 571.459 196.157 571.459C194.478 571.459 192.094 572.399 190.485 573.095C185.045 563.451 179.744 554.017 174.918 545.427L174.916 545.423L174.914 545.42C168.596 534.175 163.092 524.379 159.157 517.459C155.49 509.459 147.656 490.459 145.656 478.458C144.05 468.819 138.108 454.638 133.136 445.069L137.604 439.295L146.764 446.382L155.991 449.016L156.032 434.403L146.189 426.787L166.697 418.436L169.238 403.505L189.043 401.931L255.043 267.129L141.127 364.858L144.576 384.423L130.761 390.631L127.826 412.579L117.982 404.963L103.848 408.671L108.714 416.942L117.169 423.484L112.014 430.147L91.6561 423.458C90.9087 424.803 89.9735 428.321 91.5205 432.495C90.7487 432.488 90.3123 432.683 90.601 436.003L91.0805 436.796C90.5597 436.898 89.9299 436.928 89.2339 436.915C89.0191 436.602 88.808 436.298 88.601 436.002C81.601 434.502 79.401 435.702 78.601 436.502C77.4851 437.618 78.1274 444.739 78.5019 448.892C78.5381 449.292 78.5717 449.665 78.601 450.002L78.6925 450.119C78.696 450.571 78.6853 451.019 78.656 451.458C78.656 451.458 78.4724 451.504 78.1554 451.591C77.9646 451.32 77.7797 451.057 77.601 450.802C75.601 451.002 70.101 452.835 69.1009 454.502C68.2042 455.996 68.2605 458.801 68.522 461.635C68.6561 464.792 69.156 467.958 69.156 467.958C69.156 467.958 69.1441 467.958 69.1215 467.959C69.1064 467.959 69.0866 467.959 69.0625 467.96C68.7545 467.652 68.4342 467.333 68.1009 467.002C66.9669 467.402 66.228 467.594 65.6984 467.732C64.9048 467.938 64.5806 468.022 64.1009 468.502C63.3009 469.302 62.7675 472.669 63.1009 476.502C63.1009 476.502 63.6356 477.439 64.481 478.813C65.6191 481.076 67.1022 483.706 68.5998 486.215L69.0854 485.586L69.1026 485.608L56.107 502.404L49.2174 503.832L49.3126 503.906L48.2513 519.982L61.4989 530.232L76.7935 525.169L76.8888 525.242L76.5416 518.215L84.816 507.52L84.8524 507.579C87.6943 512.126 92.3311 519.546 99.1562 522.959C109.156 527.959 119.656 535.959 123.156 538.959C124.047 539.722 128.528 549.543 135.242 564.259C154.925 607.397 193.797 692.591 217.657 714.96C229.053 725.643 233.657 729.96 237.657 731.46C240.533 732.538 267.439 710.103 283.083 695.36L283.081 695.369L283.1 695.35C289.54 699.027 296.834 703.243 304.692 707.786L304.739 707.812L304.75 707.819L304.751 707.82C347.65 732.618 407.332 767.117 436.766 776.688C440.31 777.84 443.415 778.631 446 779C457.115 780.588 482.853 770.981 513.174 756.906C514 756.523 514.83 756.136 515.663 755.746C520.496 753.482 525.437 751.111 530.447 748.66C535.082 746.391 539.776 744.054 544.497 741.668C544.548 741.642 544.599 741.616 544.651 741.59C589.665 718.837 637.085 691.748 659.636 678.594C663.603 676.28 665.444 671.565 664.139 667.162C644.337 600.312 623.917 530.112 611.863 485.862C615.45 487.496 619.262 488.369 623.159 487.958C620.798 485.335 618.712 483.193 616.92 481.353C611.88 476.178 609.159 473.384 609.159 468.958C614.159 468.958 619.159 470.958 623.159 476.958C630.659 470.458 627.159 460.958 623.159 458.958C626.659 457.458 629.659 461.958 630.659 465.458C636.159 462.458 640.659 446.958 636.659 441.458C636.659 439.958 641.159 438.958 643.66 444.958C647.246 436.989 641.94 433.465 637.613 430.591C636.511 429.859 635.472 429.169 634.659 428.458C648.088 428.458 649.096 431.678 651.804 440.324C651.919 440.692 652.037 441.07 652.16 441.458C654.66 439.958 657.16 435.458 654.66 432.958C659.16 432.958 669.66 437.458 670.66 444.958C675.16 437.958 668.16 421.458 654.66 412.958C661.66 412.958 665.16 412.958 670.66 419.458C668.7 413.018 663.133 410.184 658.614 407.884C655.064 406.076 652.16 404.598 652.16 401.958C652.16 395.958 659.16 403.458 660.16 405.458C661.16 407.458 664.16 387.458 643.66 380.458C643.66 377.958 649.16 378.458 650.66 380.458C652.16 380.458 644.16 369.958 638.659 370.458C633.159 370.958 650.66 364.958 654.66 372.958C654.66 359.957 638.159 354.958 630.659 359.458C625.659 356.457 632.659 351.526 634.659 352.458C634.659 351.104 631.652 351.507 628.539 351.925C625.901 352.279 623.187 352.643 622.159 351.958C620.659 350.957 627.159 341.457 634.659 343.457C631.659 338.957 611.159 330.457 605.159 336.957C605.159 331.957 610.659 329.457 613.159 331.957C612.159 327.457 597.659 327.457 596.659 328.457C596.659 323.957 614.659 321.96 617.659 324.957C615.659 319.457 589.659 311.457 583.659 320.957C583.659 320.334 583.816 319.725 584.096 319.139C585.347 317.877 586.617 316.592 587.9 315.288C591.022 313.251 595 311.957 596.659 311.957C595.623 311.698 594.364 311.335 592.984 310.937L592.98 310.936L592.979 310.935L592.338 310.751C617.185 285.206 645.16 253.881 645.16 240.457C645.16 229.042 626.314 189.358 607.132 152.558C609.29 149.67 611.315 146.947 613.159 144.456C613.826 143.456 614.059 142.056 609.659 144.456C608.963 144.836 607.123 145.863 604.421 147.379C587.545 115.287 571.084 86.566 567.659 82.4558C562.987 76.8495 541.242 70.6611 522.123 65.2201L522.122 65.2198C510.548 61.9263 499.938 58.9066 494.659 56.4556C491.68 55.0726 487.545 52.9099 482.777 50.416C465.005 41.1207 438.437 27.2247 430.158 31.9554C419.658 37.9555 321.158 104.456 317.157 117.956C314.833 125.801 302.716 182.272 293.07 228.599C278.234 220.238 266.093 213.409 264.027 212.282C259.627 209.882 259.861 211.282 260.527 212.282C268.022 222.403 278.502 236.356 288.723 249.609Z" stroke="white" stroke-width="40" stroke-linejoin="round" mask="url(#path-1-outside-1_97_3116)"/>
<rect x="119.35" y="420.666" width="25.837" height="103.348" transform="rotate(37.7301 119.35 420.666)" fill="#0B3367"/>
<mask id="mask0_97_3116" style="mask-type:alpha" maskUnits="userSpaceOnUse" x="56" y="420" width="84" height="99">
<rect x="119.35" y="420.666" width="25.837" height="103.348" transform="rotate(37.7301 119.35 420.666)" fill="#0B3367"/>
</mask>
<g mask="url(#mask0_97_3116)">
<path d="M80.6424 500.748C75.6423 497.248 69.1423 487.248 67.6423 485.248L74.1423 480.748L105.643 490.248L95.1424 506.248C92.8091 504.582 84.6424 503.548 80.6424 500.748Z" fill="#001B3D"/>
</g>
<path d="M117.982 404.963L156.033 434.403L155.991 449.016L103.848 408.671L117.982 404.963Z" fill="#001B3D"/>
<path d="M108.714 416.942L146.764 446.382L155.991 449.016L103.848 408.671L108.714 416.942Z" fill="#032858"/>
<path d="M56.1071 502.404L76.5417 518.215L76.8889 525.242L49.2175 503.832L56.1071 502.404Z" fill="#032858"/>
<path d="M48.2514 519.982L61.4989 530.232L76.7936 525.168L49.3127 503.906L48.2514 519.982Z" fill="#001B3D"/>
<path d="M144.576 384.423L130.761 390.631L127.348 416.153L135.099 422.15L255.043 267.129L141.127 364.858L144.576 384.423Z" fill="#051226"/>
<path d="M169.238 403.505L166.697 418.436L142.85 428.147L135.099 422.15L255.043 267.129L189.043 401.931L169.238 403.505Z" fill="#051226"/>
<path d="M255.157 266.957L141.157 364.957L159.692 390.207L206.657 330.457L255.157 266.957Z" fill="#032858"/>
<path d="M147.657 403.457L166.657 418.458L159.692 390.207L131.156 390.958L147.657 403.457Z" fill="#032858"/>
<path d="M322.528 289.282C325.328 287.682 337.361 266.949 343.028 256.782C318.528 242.949 268.427 214.682 264.027 212.282C259.627 209.882 259.861 211.282 260.527 212.282C280.027 238.615 319.728 290.882 322.528 289.282Z" fill="#ADA2F1"/>
<path fill-rule="evenodd" clip-rule="evenodd" d="M482.159 401.458C484.213 409.349 486.417 418.024 488.725 427.347C484.052 449.349 470.758 482.464 457.683 515.037C440.779 557.147 424.239 598.349 427.158 613.459C429.418 625.155 428.372 637.819 427.1 653.233C424.768 681.485 421.674 718.978 436.767 776.688C440.31 777.84 443.415 778.631 446 779C460.82 781.117 501.637 763.333 544.651 741.59C539.761 652.167 509.849 512.653 488.725 427.347C492.085 411.531 490.99 401.458 482.159 401.458Z" fill="#2A436B"/>
<path d="M285.157 291.457C325.658 324.124 407.658 389.858 411.658 391.458L459.659 359.458L361.658 220.457L310.658 209.457L285.157 291.457Z" fill="#2A436B"/>
<path d="M342.658 300.957C343.158 252.957 317.158 227.957 312.658 218.957C351.658 181.957 428.658 228.457 454.158 253.457C448.825 279.791 434.558 348.358 424.158 361.958C418.879 368.861 395.77 371.462 372.658 371.564C371.7 371.568 370.658 366.958 370.158 364.958C369.658 366.458 367.698 371.55 366.658 371.536C346.359 371.256 327.263 369.148 321.658 366.458C335.158 346.958 342.258 339.358 342.658 300.957Z" fill="white"/>
<mask id="mask1_97_3116" style="mask-type:alpha" maskUnits="userSpaceOnUse" x="312" y="205" width="143" height="167">
<path d="M342.658 300.957C343.158 252.957 317.158 227.957 312.658 218.957C351.658 181.957 428.658 228.457 454.158 253.457C448.825 279.791 434.558 348.358 424.158 361.958C418.879 368.861 395.77 371.462 372.658 371.564C371.7 371.568 370.658 366.958 370.158 364.958C369.658 366.458 367.698 371.55 366.658 371.536C346.359 371.256 327.263 369.148 321.658 366.458C335.158 346.958 342.258 339.358 342.658 300.957Z" fill="white"/>
</mask>
<g mask="url(#mask1_97_3116)">
<path d="M351.5 296C348.39 291.808 348.5 294 347 290L435.5 347L417.5 373C405 351 363 311.5 351.5 296Z" fill="#E8E8F4"/>
</g>
<path fill-rule="evenodd" clip-rule="evenodd" d="M313.158 216.957C318.491 222.457 335.358 242.657 338.158 249.457C340.366 254.821 342.376 265.758 344.186 275.613C345.245 281.375 346.235 286.767 347.158 290.457C349.658 300.457 407.658 340.458 419.158 346.958C421.75 348.423 423.859 349.659 425.618 350.69C431.661 354.232 433.56 355.345 436.658 354.958C439.858 354.558 445.325 350.791 447.658 348.958L445.658 367.458C442.869 368.562 439.338 370.488 435.566 372.547C428.519 376.392 420.63 380.697 415.158 380.958C410.25 381.192 400.437 386.785 387.275 394.288C377.911 399.626 366.852 405.93 354.658 411.958C353.075 415.812 346.917 421.905 340.232 428.52C330.728 437.924 320.158 448.383 320.158 454.958C320.158 460.423 315.634 471.785 311.001 483.421C306.139 495.632 301.158 508.143 301.158 514.459L262.657 618.459C256.491 630.293 243.657 654.86 241.657 658.46C240.051 661.351 200.703 591.319 174.915 545.42C168.596 534.175 163.092 524.379 159.157 517.459C155.49 509.459 147.657 490.459 145.657 478.458C143.157 463.458 130.156 437.458 126.656 434.958L91.6562 423.458C90.8228 424.958 89.7562 429.158 92.1562 433.958C93.8735 437.393 90.1021 437.059 86.141 436.708C83.1825 436.447 80.1181 436.176 79.1561 437.458C77.7273 439.363 78.0459 442.478 78.3835 445.778C78.5775 447.675 78.7778 449.633 78.6561 451.458C78.6561 451.458 70.6561 453.458 69.156 455.958C67.656 458.458 69.156 467.958 69.156 467.958C69.156 467.958 66.156 467.958 65.156 469.458C64.156 470.958 63.156 475.958 63.156 475.958C64.2508 478.617 66.4098 482.546 68.5998 486.215L72.6561 480.958C72.6561 480.958 83.2702 489.646 85.7109 490.869C88.1516 492.092 93.9481 491.869 94.9481 490.869L96.4481 489.369L98.3656 489.959L84.8076 507.507C84.8225 507.531 84.8375 507.555 84.8525 507.579C87.6944 512.126 92.3312 519.546 99.1562 522.959C109.156 527.959 119.656 535.959 123.156 538.959C124.047 539.722 128.528 549.544 135.243 564.26C154.925 607.398 193.797 692.591 217.657 714.96C229.053 725.643 233.657 729.96 237.657 731.46C241.657 732.96 292.157 688.96 294.157 683.46C295.757 679.06 402.491 529.292 455.658 454.958L518.659 390.458L531.159 219.457L491.159 128.956L419.158 104.456C408.658 107.456 386.558 114.456 382.158 118.456C377.758 122.456 325.658 178.957 313.158 216.957Z" fill="#ADA2F1"/>
<mask id="mask2_97_3116" style="mask-type:alpha" maskUnits="userSpaceOnUse" x="63" y="104" width="469" height="628">
<path fill-rule="evenodd" clip-rule="evenodd" d="M313.158 216.957C318.491 222.457 335.358 242.657 338.158 249.457C340.366 254.821 342.376 265.758 344.186 275.613C345.245 281.375 346.235 286.767 347.158 290.457C349.658 300.457 407.658 340.458 419.158 346.958C421.75 348.423 423.859 349.659 425.618 350.69C431.661 354.232 433.56 355.345 436.658 354.958C439.858 354.558 445.325 350.791 447.658 348.958L445.658 367.458C442.869 368.562 439.338 370.488 435.566 372.547C428.519 376.392 420.63 380.697 415.158 380.958C410.25 381.192 400.437 386.785 387.275 394.288C377.911 399.626 366.852 405.93 354.658 411.958C353.075 415.812 346.917 421.905 340.232 428.52C330.728 437.924 320.158 448.383 320.158 454.958C320.158 460.423 315.634 471.785 311.001 483.421C306.139 495.632 301.158 508.143 301.158 514.459L262.657 618.459C256.491 630.293 243.657 654.86 241.657 658.46C240.051 661.351 200.703 591.319 174.915 545.42C168.596 534.175 163.092 524.379 159.157 517.459C155.49 509.459 147.657 490.459 145.657 478.458C143.157 463.458 130.156 437.458 126.656 434.958L91.6562 423.458C90.8228 424.958 89.7562 429.158 92.1562 433.958C93.8735 437.393 90.1021 437.059 86.141 436.708C83.1825 436.447 80.1181 436.176 79.1561 437.458C77.7273 439.363 78.0459 442.478 78.3835 445.778C78.5775 447.675 78.7778 449.633 78.6561 451.458C78.6561 451.458 70.6561 453.458 69.156 455.958C67.656 458.458 69.156 467.958 69.156 467.958C69.156 467.958 66.156 467.958 65.156 469.458C64.156 470.958 63.156 475.958 63.156 475.958C64.2508 478.617 66.4098 482.546 68.5998 486.215L72.6561 480.958C72.6561 480.958 83.2702 489.646 85.7109 490.869C88.1516 492.092 93.9481 491.869 94.9481 490.869L96.4481 489.369L98.3656 489.959L84.8076 507.507C84.8225 507.531 84.8375 507.555 84.8525 507.579C87.6944 512.126 92.3312 519.546 99.1562 522.959C109.156 527.959 119.656 535.959 123.156 538.959C124.047 539.722 128.528 549.544 135.243 564.26C154.925 607.398 193.797 692.591 217.657 714.96C229.053 725.643 233.657 729.96 237.657 731.46C241.657 732.96 292.157 688.96 294.157 683.46C295.757 679.06 402.491 529.292 455.658 454.958L518.659 390.458L531.159 219.457L491.159 128.956L419.158 104.456C408.658 107.456 386.558 114.456 382.158 118.456C377.758 122.456 325.658 178.957 313.158 216.957Z" fill="#FFDDCC"/>
</mask>
<g mask="url(#mask2_97_3116)">
<g opacity="0.7" filter="url(#filter0_f_97_3116)">
<path d="M139.101 508.003C139.101 537.274 115.372 561.003 86.1011 561.003C56.8298 561.003 33.1008 537.274 33.1008 508.003C33.1008 478.731 56.8298 455.002 86.1011 455.002C115.372 455.002 139.101 478.731 139.101 508.003Z" fill="url(#paint0_radial_97_3116)"/>
</g>
<g opacity="0.7" filter="url(#filter1_f_97_3116)">
<circle cx="235" cy="731" r="52" fill="url(#paint1_radial_97_3116)"/>
</g>
<g style="mix-blend-mode:multiply" opacity="0.5">
<path d="M435.123 395.259C417.418 396.504 412.813 394.609 405.825 393.28C405.203 396.104 405.359 401.253 410.95 403.247C417.938 405.739 416.021 406.222 435.123 405.724C454.226 405.226 456.045 401.95 465.053 400.621V388.411C461.636 389.657 452.828 394.013 435.123 395.259Z" fill="#ADA2F1"/>
<path d="M486.444 398.663C483.816 409.182 474.097 415.847 464.736 413.549C455.375 411.25 449.916 400.86 452.544 390.34C455.172 379.821 464.891 373.157 474.252 375.455C483.613 377.753 489.072 388.144 486.444 398.663Z" fill="#ADA2F1"/>
<path d="M419.464 402.588C415.363 410.949 406.126 414.876 398.832 411.36C396.274 410.127 394.294 408.142 392.979 405.724C396.603 402.588 402.103 398.502 408.103 396.002C412.204 387.641 406.388 377.568 413.682 381.084C420.976 384.6 423.565 394.228 419.464 402.588Z" fill="#ADA2F1"/>
</g>
<g style="mix-blend-mode:multiply" opacity="0.5">
<path d="M528.604 333.001C529.604 331.501 491 305.5 487 313C485.219 316.34 470 333.001 447.5 349C433.181 363.319 410.773 389.499 403.103 398.002C399.603 400.502 395.473 403.879 395.103 404.002C394.103 405.669 409.333 448.774 413.603 451.002C425.103 457.002 511.604 413.502 520.604 402.002C523.069 398.852 527.604 334.501 528.604 333.001Z" fill="#ADA2F1"/>
</g>
<path opacity="0.4" d="M482.104 194.501C437.703 186.901 387.103 148.334 370.103 130.5L374.603 111L510.104 162L541.604 307.001C506.937 321.001 515 315.2 491 306.7C493 310.2 471 330.5 463.5 336.5C483.254 302.012 491.176 229.21 482.104 194.501Z" fill="#8E81E9"/>
<path opacity="0.4" d="M380.603 250.501C368.103 258.314 349.603 266.168 342.603 265.001C342.603 267.401 346.269 327.001 348.103 331.501C357.103 327.501 373.103 320.787 382.103 315.001C389.103 310.501 402.103 296.001 409.603 293.501C417.103 291.001 436.103 302.001 458.603 301.001C474.234 300.306 495.27 293.334 502.604 284.501C502.437 279.167 500.604 203.901 498.604 207.501C496.104 212.001 475.604 233.001 460.103 235.001C444.603 237.001 415.103 228.501 409.103 230.001C403.745 231.34 396.603 240.501 380.603 250.501Z" fill="url(#paint2_linear_97_3116)"/>
<path d="M380.603 275.501C368.103 283.314 349.603 281.168 342.603 280.001C342.603 282.401 346.269 292.001 348.103 296.501C357.103 292.501 372.603 284.787 381.603 279.001C387.603 275.144 401.603 261.001 409.103 258.501C419.603 255.001 436.103 267.001 458.603 266.001C474.234 265.306 495.27 258.334 502.604 249.501C502.437 244.167 500.604 228.901 498.604 232.501C496.104 237.001 475.604 258.001 460.103 260.001C444.603 262.001 418.103 252.001 409.103 255.001C403.864 256.747 396.603 265.501 380.603 275.501Z" fill="#7468E5"/>
<g style="mix-blend-mode:multiply" opacity="0.4">
<path d="M405.258 268.825C405.334 267.933 405.448 266.992 405.603 266.001C405.603 266.192 405.462 267.263 405.258 268.825C403.395 290.906 425.182 283.484 428.103 273.501C428.937 274.335 430.503 276.301 430.103 277.501C429.703 278.701 429.5 280 429.5 280.5C428.328 282.394 422.407 285.049 412.603 289.501C411.103 289.835 405.303 288.501 404.103 286.501C403.178 284.959 404.572 274.096 405.258 268.825Z" fill="#ADA2F1"/>
</g>
<path d="M426.819 282.723C425.183 282.614 422.051 282.488 420.529 283.095C419.794 283.392 419.135 283.85 418.599 284.436C418.064 285.021 419 285.5 420 286C423 285 425 283.5 426.819 282.723Z" fill="#1D0DB9"/>
<path d="M406.048 262.501C406.048 262.501 405.048 277.501 405.048 281.001C404.603 288.001 410.861 288.759 412.503 289.732C412.503 289.732 405.143 290.417 403.548 285.001C402.746 282.38 405.424 266.04 406.048 262.501Z" fill="#1D0DB9"/>
<path d="M426.996 271.548C428.551 274.319 429.36 277.448 429.342 280.625C430.098 279.418 430.502 278.022 430.509 276.594C430.339 274.176 426.996 271.548 426.996 271.548Z" fill="#1D0DB9"/>
<path d="M168.624 547.738C160.241 565.629 147.383 582.73 141.94 588.56C144.904 591.069 151.025 594.403 156.469 590.369C163.275 585.325 170.852 573.549 180.887 554.819C190.923 536.088 190.279 529.336 193.729 519.763L179.421 511.503C178.982 515.635 177.006 529.847 168.624 547.738Z" fill="#8E81E9"/>
<path d="M148.517 542.066C135.454 563.089 110.387 548.389 104 551C105.421 554.044 112.762 562.2 118.5 561C125.673 559.501 129.548 567 152.5 552C175.452 537 172.195 525.446 178.372 519.173L170.12 517.503C168.278 510.591 161.581 521.043 148.517 542.066Z" fill="#8E81E9"/>
<path d="M190.517 594.269C170.832 595.955 149.593 593.37 141.823 591.572C141.132 595.393 141.305 602.362 147.521 605.059C155.291 608.431 169.278 609.105 190.517 608.431C211.756 607.756 217.282 603.823 227.297 602.024V585.503C223.498 587.189 210.202 592.584 190.517 594.269Z" fill="#8E81E9"/>
<path d="M198.495 628.832C185.984 644.159 168.807 657.019 161.81 661.011C164.513 664.691 170.455 670.389 177.103 668.246C185.414 665.567 195.867 656.24 210.322 640.659C224.777 625.077 225.399 617.885 230.979 609.301L217.181 595.503C215.903 599.597 211.007 613.505 198.495 628.832Z" fill="#8E81E9"/>
<path d="M217.999 653.533C209.881 671.576 196.617 688.443 190.892 694.11C194.456 696.965 201.67 700.931 207.537 697.14C214.871 692.402 222.554 680.687 232.484 661.895C242.414 643.104 241.153 635.995 244.321 626.26L227.422 616.503C227.247 620.789 226.117 635.489 217.999 653.533Z" fill="#8E81E9"/>
<path d="M165.623 542.738C157.241 560.629 144.383 577.73 138.94 583.56C141.904 586.069 144.056 596.538 149.501 592.503C156.306 587.46 167.852 568.549 177.887 549.819C187.923 531.088 187.279 524.336 190.729 514.763L176.421 506.502C175.982 510.635 174.006 524.847 165.623 542.738Z" fill="#051226"/>
<path d="M209.546 634.503C207.546 623.703 197.046 591.67 192.046 577.003L197.546 575.503L292.102 670.004C285.436 670.67 259.302 668.404 252.102 670.004C243.102 672.004 227.602 676.004 221.602 672.004C215.602 668.004 212.046 648.003 209.546 634.503Z" fill="#8E81E9"/>
<path d="M155.517 527.066C142.454 538.089 126.16 546.871 119.773 549.482C121.193 552.527 124.796 557.363 130.534 556.163C137.707 554.664 147.924 548.154 162.59 537.069C177.257 525.984 179.195 520.446 185.372 514.173L177.12 502.502C175.278 505.591 168.58 516.043 155.517 527.066Z" fill="#051226"/>
<path d="M187.517 589.27C167.832 590.955 146.593 588.37 138.823 586.572C138.132 590.393 138.305 597.362 144.521 600.059C152.291 603.431 166.278 604.105 187.517 603.431C208.756 602.756 214.282 598.823 224.297 597.024L224.297 580.503C220.498 582.189 207.202 587.584 187.517 589.27Z" fill="#051226"/>
<path d="M195.495 623.832C182.984 639.159 165.807 652.019 158.81 656.011C161.513 659.691 167.455 665.389 174.103 663.246C182.414 660.567 192.867 651.24 207.322 635.659C221.777 620.077 222.399 612.885 227.979 604.301L214.181 590.503C212.903 594.597 208.007 608.504 195.495 623.832Z" fill="#051226"/>
<path d="M214.999 648.532C206.881 666.576 193.617 683.443 187.892 689.11C191.456 691.965 198.67 695.931 204.537 692.14C211.871 687.402 219.554 675.687 229.484 656.895C239.413 638.104 238.153 630.995 241.321 621.26L224.422 611.503C224.247 615.789 223.117 630.489 214.999 648.532Z" fill="#051226"/>
<path opacity="0.5" d="M248.047 730.504C237.93 735.782 245.903 729.258 258.053 720.166C262.202 712.142 264.931 699.067 267.547 676.503C259.861 662.38 234.511 669.349 231.501 659.003C249.001 618.503 270.179 576.55 267.547 559.003C267.547 553.003 270.447 549.003 280.047 559.003C292.047 571.503 296.547 690.504 296.047 692.004C295.767 692.844 273.524 708.587 258.053 720.166C255.408 725.282 252.185 728.345 248.047 730.504Z" fill="#8E81E9"/>
<path d="M80.6011 506.503C78.101 507.003 66.101 485.502 63.601 482.002V437.502L90.6011 431.002C93.7678 436.669 101.301 447.202 106.101 450.002C112.101 453.502 114.101 452.002 116.601 452.502C118.601 452.902 119.268 457.336 120.601 460.502C119.601 468.002 119.101 480.502 123.601 492.002C124.776 495.006 116.101 507.336 111.601 510.503C104.601 511.669 82.6011 506.103 80.6011 506.503Z" fill="url(#paint3_linear_97_3116)"/>
<path d="M123.576 492.04C118.287 487.999 116.9 469.413 120.601 460.002C119.132 469.961 121.075 480.54 121.576 483.54C122.076 486.54 123.576 490.04 123.576 492.04Z" fill="#7567E4"/>
<path d="M111.905 510.429L112.391 510.475C104.391 511.475 89.8913 510.975 88.3913 509.975C86.8913 508.975 85.5 507.5 85.5 507C91.4074 508.477 101.572 509.445 111.905 510.429Z" fill="#7567E4"/>
</g>
<path d="M93.2262 488.372L69.101 467.002C68.7677 463.169 67.601 457.002 69.101 454.502C70.101 452.835 76.5 451.7 78.5 451.5C84.3334 459.833 96.0011 476.002 99.6011 478.002C103.201 480.002 109.101 481.169 111.601 481.502C111.101 484.002 110.501 489.202 108.101 490.002C106.018 490.697 100.189 490.309 96.1806 489.759C95.0785 489.607 94.059 489.109 93.2262 488.372Z" fill="url(#paint4_linear_97_3116)"/>
<path d="M73.101 489.502C69.601 487.887 63.1009 476.502 63.1009 476.502C62.7676 472.669 63.3009 469.302 64.1009 468.502C64.901 467.702 66.65 467.6 69.15 467.6C76.2083 474.6 76.3577 475.858 78.6593 477.502C82.1593 480.002 92.5 490.467 95 490.8C94.5 493.3 94.0011 497.202 91.6011 498.002C89.2011 498.802 76.601 491.118 73.101 489.502Z" fill="url(#paint5_linear_97_3116)"/>
<path d="M99.3165 476.516L78.7 450.6C78.3666 446.767 77.3776 437.725 78.601 436.502C79.4011 435.702 82.5 435.5 89.5 437C95.3334 445.333 103.601 460.002 106.101 463.002C108.601 466.002 111.601 468.169 114.101 468.502C115.101 470.502 117.001 480.202 114.601 481.002C112.437 481.724 105.229 479.517 101.268 477.977C100.496 477.677 99.8315 477.163 99.3165 476.516Z" fill="url(#paint6_linear_97_3116)"/>
<path d="M105.101 460.003L90.5 437C90.1667 433.167 90.53 432.5 91.53 432.5C91.53 432.5 95.1011 439.502 98.6011 442.002C101.049 444.178 113.809 452.064 117.101 452.502C118.101 454.503 117.501 466.703 115.101 467.503C112.701 468.303 107.601 463.503 105.101 460.003Z" fill="url(#paint7_linear_97_3116)"/>
<path fill-rule="evenodd" clip-rule="evenodd" d="M294.598 497.016C293.804 497.811 293.153 498.463 292.658 498.959C283.157 508.459 269.659 528.464 274.157 549.459C276.019 558.146 279.247 568.744 281.536 576.263C282.936 580.861 283.986 584.307 284.157 585.459C287.657 608.959 290.97 652.755 284.157 689.96C283.833 691.733 283.473 693.538 283.081 695.369C283.087 695.363 283.094 695.356 283.1 695.35C289.556 699.036 296.87 703.264 304.75 707.819C352.813 735.602 421.944 775.563 446 779C457.418 780.631 484.267 770.449 515.663 755.746C502.432 719.965 491.867 682.986 492.159 670.46C492.559 653.26 506.492 556.959 522.659 524.459L488.659 403.458C478.174 408.517 465.399 413.963 453.313 419.115C437.927 425.675 423.659 431.758 416.658 435.958C407.658 420.458 400.158 410.458 393.658 403.458C389.258 404.658 375.658 415.791 374.658 418.458C346.613 444.945 305.983 485.619 294.598 497.016Z" fill="#051226"/>
<path d="M407.658 396.958C396.458 399.758 306.334 496.5 275.5 526.5C279.5 509.5 331.2 424.5 340 412.5C348.8 400.5 379.825 392.291 400.158 384.958C408.658 386.958 418.858 394.158 407.658 396.958Z" fill="#051226"/>
<path d="M356.826 440.702C364.547 428.522 388.79 397.74 412.158 390.569L404.524 383.112C375.515 365.239 331.747 337.291 329.393 343.394C328.377 340.084 314.661 343.394 308.565 344.387C311.529 344.387 321.773 347.035 321.773 350.345C315.677 344.056 289.26 349.352 287.228 352.993C290.276 351.008 308.565 352.331 308.565 355.31C307.549 354.647 292.816 354.647 291.8 357.626C294.34 355.971 299.928 357.626 299.928 360.936C293.832 356.633 273.004 362.26 269.956 365.239C277.576 363.915 284.18 370.203 282.656 370.866C280.38 371.854 269.956 369.542 269.956 371.196C271.988 370.58 279.1 373.844 274.02 375.83C266.4 372.851 249.635 376.161 249.635 384.767C253.699 379.471 271.48 383.443 265.892 383.112C260.304 382.781 252.175 389.731 253.699 389.731C255.223 388.407 260.812 388.076 260.812 389.731C239.983 394.365 243.031 407.604 244.047 406.28C245.063 404.956 252.175 399.992 252.175 403.963C252.175 407.935 244.713 404.734 241.157 412.347C244.047 409.625 248.282 411.245 249.635 411.245C246.755 413.125 242.183 415.88 246.755 420.514C247.772 415.549 251.858 417.998 256.43 417.998C253.89 419.653 256.43 422.632 258.97 423.625C260.812 419.736 267.924 419.347 269.956 421.505C265.892 423.822 256.239 425.808 260.812 432.428C263.352 428.456 267.924 429.118 267.924 430.111C263.86 433.751 268.432 444.012 274.02 445.998C275.036 443.681 278.084 440.702 281.64 441.695C277.576 443.019 274.02 449.307 281.64 453.61C285.704 449.638 290.784 448.314 295.864 448.314C295.864 452.286 290.784 454.272 281.64 460.892C298.264 462.032 313.381 448.199 316.285 444.97C315.523 446.294 314.29 449.352 318.217 450.631C318.217 446.329 344.125 431.435 346.665 432.428C349.205 433.42 346.157 436.068 342.093 439.709C356.318 438.385 355.81 428.456 356.826 426.801C358.858 427.794 353.27 435.737 356.826 440.702Z" fill="#C751FF"/>
<mask id="mask3_97_3116" style="mask-type:alpha" maskUnits="userSpaceOnUse" x="241" y="341" width="172" height="120">
<path d="M356.826 440.702C364.547 428.522 388.79 397.74 412.158 390.569L404.524 383.112C375.515 365.239 331.747 337.291 329.393 343.394C328.377 340.084 314.661 343.394 308.565 344.387C311.529 344.387 321.773 347.035 321.773 350.345C315.677 344.056 289.26 349.352 287.228 352.993C290.276 351.008 308.565 352.331 308.565 355.31C307.549 354.647 292.816 354.647 291.8 357.626C294.34 355.971 299.928 357.626 299.928 360.936C293.832 356.633 273.004 362.26 269.956 365.239C277.576 363.915 284.18 370.203 282.656 370.866C280.38 371.854 269.956 369.542 269.956 371.196C271.988 370.58 279.1 373.844 274.02 375.83C266.4 372.851 249.635 376.161 249.635 384.767C253.699 379.471 271.48 383.443 265.892 383.112C260.304 382.781 252.175 389.731 253.699 389.731C255.223 388.407 260.812 388.076 260.812 389.731C239.983 394.365 243.031 407.604 244.047 406.28C245.063 404.956 252.175 399.992 252.175 403.963C252.175 407.935 244.713 404.734 241.157 412.347C244.047 409.625 248.282 411.245 249.635 411.245C246.755 413.125 242.183 415.88 246.755 420.514C247.772 415.549 251.858 417.998 256.43 417.998C253.89 419.653 256.43 422.632 258.97 423.625C260.812 419.736 267.924 419.347 269.956 421.505C265.892 423.822 256.239 425.808 260.812 432.428C263.352 428.456 267.924 429.118 267.924 430.111C263.86 433.751 268.432 444.012 274.02 445.998C275.036 443.681 278.084 440.702 281.64 441.695C277.576 443.019 274.02 449.307 281.64 453.61C285.704 449.638 290.784 448.314 295.864 448.314C295.864 452.286 290.784 454.272 281.64 460.892C298.264 462.032 313.381 448.199 316.285 444.97C315.523 446.294 314.29 449.352 318.217 450.631C318.217 446.329 344.125 431.435 346.665 432.428C349.205 433.42 346.157 436.068 342.093 439.709C356.318 438.385 355.81 428.456 356.826 426.801C358.858 427.794 353.27 435.737 356.826 440.702Z" fill="#C751FF"/>
</mask>
<g mask="url(#mask3_97_3116)">
<path d="M455.089 399.875C443.421 383.258 398.412 396.615 384.732 392.451C381.405 391.438 373.312 385.236 362 377.542C356 377.542 322.336 376.414 317 373.5C322.5 369.5 326.5 361.5 327 359C317.733 353.324 309.371 348.933 297.5 346L309.778 334.468L458.978 353.56L455.796 380.784L455.089 399.875Z" fill="#A72FE0"/>
</g>
<path d="M449.658 581.959L500.659 467.458L531.659 590.459C515.659 614.793 481.959 663.86 475.159 665.46C466.659 667.46 421.658 669.46 419.658 669.46H309.158C291.657 668.293 255.557 665.86 251.157 665.46C245.657 664.96 238.657 665.96 232.157 661.46C226.957 657.859 216.99 629.959 212.657 615.459L189.657 573.459C191.157 572.792 194.157 571.459 196.157 571.459C198.157 571.459 203.657 572.792 206.157 573.459C208.49 572.626 213.657 571.059 215.657 571.459C218.157 571.959 232.657 581.459 233.657 581.959C234.657 582.459 245.657 585.459 248.657 586.959C251.657 588.459 272.657 623.459 275.657 625.459C278.657 627.459 281.657 627.959 289.157 628.459C296.657 628.959 340.658 615.959 357.658 611.459C371.258 607.859 424.658 590.292 449.658 581.959Z" fill="#ADA2F1"/>
<mask id="mask4_97_3116" style="mask-type:alpha" maskUnits="userSpaceOnUse" x="189" y="467" width="343" height="203">
<path d="M449.658 581.959L500.659 467.458L531.659 590.459C515.659 614.793 481.959 663.86 475.159 665.46C466.659 667.46 421.658 669.46 419.658 669.46H309.158C291.657 668.293 255.557 665.86 251.157 665.46C245.657 664.96 238.657 665.96 232.157 661.46C226.957 657.859 216.99 629.959 212.657 615.459L189.657 573.459C191.157 572.792 194.157 571.459 196.157 571.459C198.157 571.459 203.657 572.792 206.157 573.459C208.49 572.626 213.657 571.059 215.657 571.459C218.157 571.959 232.657 581.459 233.657 581.959C234.657 582.459 246.157 585.459 249.157 586.959C252.157 588.459 272.657 623.459 275.657 625.459C278.657 627.459 281.657 627.959 289.157 628.459C296.657 628.959 340.658 615.959 357.658 611.459C371.258 607.859 424.658 590.292 449.658 581.959Z" fill="#FFDDCC"/>
</mask>
<g mask="url(#mask4_97_3116)">
<g filter="url(#filter2_f_97_3116)">
<circle cx="206.157" cy="554.959" r="53.0003" fill="url(#paint8_radial_97_3116)"/>
</g>
<g opacity="0.7" filter="url(#filter3_f_97_3116)">
<circle cx="469" cy="672" r="53.0003" fill="url(#paint9_radial_97_3116)"/>
</g>
<path d="M429.158 634.959C426.658 615.959 430.492 595.459 433.158 587.959C427.492 587.292 417.158 587.459 413.158 593.459C408.158 600.959 407.158 614.459 408.158 634.959C409.158 655.459 414.992 660.793 417.658 670.46H442.158C439.658 666.793 431.658 653.959 429.158 634.959Z" fill="#8E81E9"/>
<path d="M308.846 652.463C301.59 632.411 298.351 609.546 298.056 600.943C293.879 601.29 286.662 603.417 285.587 610.651C284.242 619.694 287.446 634.465 294.082 656.419C300.719 678.374 306.363 683.035 311.036 692.974L328.26 688.359C325.441 684.87 316.103 672.515 308.846 652.463Z" fill="#8E81E9"/>
<path d="M283.396 655.966C291.339 639.014 303.523 622.809 308.68 617.285C305.872 614.908 300.072 611.748 294.913 615.571C288.465 620.35 281.285 631.508 271.776 649.257C262.266 667.005 262.876 673.403 259.607 682.474L273.165 690.302C273.581 686.385 275.454 672.919 283.396 655.966Z" fill="#8E81E9"/>
<path d="M337.846 646.463C330.59 626.411 327.352 603.546 327.056 594.943C322.879 595.29 315.662 597.417 314.587 604.651C313.242 613.694 316.446 628.465 323.083 650.419C329.719 672.374 335.363 677.035 340.036 686.974L357.26 682.359C354.442 678.87 345.103 666.515 337.846 646.463Z" fill="#8E81E9"/>
<path d="M378.186 642.333C393.331 618.56 414.373 596.466 422.981 589.071C419.497 585.2 411.909 579.772 403.679 584.673C393.391 590.798 380.631 606.178 363.068 630.903C345.506 655.628 344.949 665.094 338.247 677.948L355.884 691.282C357.355 685.597 363.041 666.105 378.186 642.333Z" fill="#8E81E9"/>
<path d="M424.158 634.959C421.658 615.959 425.492 595.459 428.158 587.959C422.492 587.292 412.158 587.459 408.158 593.459C403.158 600.959 402.158 614.459 403.158 634.959C404.158 655.46 409.992 660.793 412.658 670.46H437.158C434.658 666.793 426.658 653.96 424.158 634.959Z" fill="#051226"/>
<path d="M303.846 652.463C296.59 632.411 293.351 609.546 293.056 600.943C288.879 601.29 281.662 603.417 280.587 610.651C279.242 619.694 282.446 634.465 289.082 656.419C295.719 678.374 301.363 683.035 306.036 692.974L323.26 688.359C320.441 684.87 311.103 672.515 303.846 652.463Z" fill="#051226"/>
<path d="M278.396 655.966C286.339 639.014 298.523 622.809 303.68 617.285C300.872 614.908 295.072 611.748 289.913 615.571C283.465 620.35 276.285 631.508 266.776 649.257C257.266 667.005 257.876 673.403 254.607 682.474L268.165 690.302C268.581 686.385 270.453 672.919 278.396 655.966Z" fill="#051226"/>
<path d="M332.846 646.463C325.59 626.411 322.352 603.546 322.056 594.943C317.879 595.29 310.662 597.417 309.587 604.651C308.242 613.694 311.446 628.465 318.083 650.419C324.719 672.374 330.363 677.035 335.036 686.974L352.26 682.359C349.442 678.87 340.103 666.515 332.846 646.463Z" fill="#051226"/>
<path d="M373.186 642.333C388.331 618.56 409.373 596.466 417.981 589.071C414.497 585.2 406.909 579.772 398.679 584.673C388.391 590.798 375.631 606.178 358.068 630.903C340.506 655.628 339.949 665.094 333.247 677.948L350.884 691.282C352.355 685.597 358.041 666.105 373.186 642.333Z" fill="#051226"/>
<path d="M498.328 589.102C480.346 574.656 465.563 554.451 461.048 546.166C456.472 549.604 449.308 557.053 451.599 565.001C454.464 574.937 465.277 587.165 483.478 603.951C501.679 620.738 510.355 621.165 520.49 627.528L537.814 610.204C532.918 608.843 516.309 603.548 498.328 589.102Z" fill="#8E81E9"/>
<path d="M516.325 564.283C506.421 530.255 502.117 492.162 501.779 477.958C495.978 477.942 485.943 480.426 484.389 492.182C482.447 506.878 486.771 531.642 495.798 568.715C504.826 605.787 512.622 614.256 519.025 631.274L542.973 626.103C539.09 619.962 526.23 598.311 516.325 564.283Z" fill="#8E81E9"/>
<path d="M496.59 580.487C478.608 566.041 463.825 545.837 459.31 537.551C454.735 540.989 447.57 548.438 449.862 556.386C452.726 566.322 463.54 578.55 481.741 595.337C499.942 612.123 508.618 612.55 518.753 618.913L536.077 601.589C531.18 600.228 514.572 594.933 496.59 580.487Z" fill="#051226"/>
<path d="M520.659 550.959C510.754 516.931 500.38 483.547 500.041 469.343C494.24 469.327 484.205 471.811 482.651 483.567C480.709 498.263 485.033 523.027 494.061 560.1C503.088 597.172 510.885 605.641 517.287 622.659L541.236 617.488C537.352 611.347 530.564 584.987 520.659 550.959Z" fill="#051226"/>
</g>
<path d="M342.658 300.957C358.658 317.458 365.5 323.191 372.658 331C383.683 343.028 397 353 401.5 369.844C392.882 370.996 382.77 371.519 372.658 371.564C371.7 371.568 370.658 366.958 370.158 364.958C369.658 366.458 367.698 371.55 366.658 371.536C346.359 371.255 327.263 369.148 321.658 366.458C335.158 346.958 342.258 339.358 342.658 300.957Z" fill="white"/>
<path d="M491.159 188.457C436.758 178.057 387.825 141.79 370.158 124.956L481.159 83.4559L589.159 227.957C583.826 254.29 574.059 300.357 563.659 313.957C556.809 322.916 524.705 337.211 495.159 345.925C493.144 346.52 494.159 340.458 494.159 337.458C493.159 340.458 489.807 347.545 488.159 347.958C477.002 350.754 462.776 353.458 455.159 353.458C477.659 337.958 488.659 306.457 494.159 275.957C499.659 245.457 491.159 191.957 491.159 188.457Z" fill="white"/>
<path d="M325.158 234.457C323.158 216.957 361.325 156.123 376.658 124.456C341.197 152.641 324.278 170.617 310.158 214.457C308.991 218.79 321.158 229.957 325.158 234.457Z" fill="white"/>
<mask id="mask5_97_3116" style="mask-type:alpha" maskUnits="userSpaceOnUse" x="309" y="83" width="280" height="271">
<path d="M491 188.5C436.6 178.1 387.667 141.833 370 125L481 83.5L589 228C583.667 254.333 573.9 300.4 563.5 314C553.1 327.6 484.5 353.5 455 353.5C477.5 338 488.5 306.5 494 276C499.5 245.5 491 192 491 188.5Z" fill="#4A0F23"/>
<path d="M325 234.5C323 217 361.167 156.167 376.5 124.5C341.039 152.685 324.121 170.661 310 214.5C308.833 218.833 321 230 325 234.5Z" fill="#4A0F23"/>
</mask>
<g mask="url(#mask5_97_3116)">
<path d="M390.578 134.5C381.378 131.7 372.745 133.333 369.578 134.5L385.578 112.5L464.078 130.5L576.578 252L524.578 337.5C532.412 316 546.778 270.8 541.578 262C535.078 251 468.578 163 458.078 154C447.578 145 402.078 138 390.578 134.5Z" fill="#E8E8F4"/>
</g>
<path d="M530.447 748.66C579.318 724.743 634.668 693.157 659.619 678.604C663.585 676.291 665.444 671.567 664.14 667.165C635.804 571.506 606.205 468.988 601.659 445.458C594.859 410.258 519.159 401.458 482.159 401.458C503.516 483.494 529.819 650.201 530.447 748.66Z" fill="#051226"/>
<path d="M549.159 457.458C541.559 439.058 495.659 409.791 472.659 398.958L479.159 382.458C511.159 360.124 575.359 314.457 576.159 310.457C577.159 305.457 590.659 310.457 596.659 311.957C593.742 311.957 583.659 315.957 583.659 320.957C589.659 311.457 615.659 319.457 617.659 324.957C614.659 321.96 596.659 323.957 596.659 328.457C597.659 327.457 612.159 327.457 613.159 331.957C610.659 329.457 605.159 331.957 605.159 336.957C611.159 330.457 631.66 338.957 634.66 343.457C627.16 341.457 620.659 350.957 622.159 351.958C624.4 353.451 634.66 349.957 634.66 352.458C632.66 351.526 625.66 356.457 630.66 359.458C638.16 354.958 654.66 359.957 654.66 372.958C650.66 364.958 633.16 370.958 638.66 370.458C644.16 369.958 652.16 380.458 650.66 380.458C649.16 378.458 643.66 377.958 643.66 380.458C664.16 387.458 661.16 407.458 660.16 405.458C659.16 403.458 652.16 395.958 652.16 401.958C652.16 407.958 667.16 407.958 670.66 419.458C665.16 412.958 661.66 412.958 654.66 412.958C668.16 421.458 675.16 437.958 670.66 444.958C669.66 437.458 659.16 432.958 654.66 432.958C657.16 435.458 654.66 439.958 652.16 441.458C649.16 431.958 648.66 428.458 634.66 428.458C638.66 431.958 648.16 434.958 643.66 444.958C641.16 438.958 636.66 439.958 636.66 441.458C640.66 446.958 636.16 462.458 630.66 465.458C629.66 461.958 626.66 457.458 623.159 458.958C627.16 460.958 630.66 470.458 623.159 476.958C619.159 470.958 614.159 468.958 609.159 468.958C609.159 474.958 614.159 477.958 623.159 487.958C606.797 489.681 591.918 468.784 589.06 463.906C589.811 465.905 591.024 470.526 587.159 472.458C587.159 465.958 561.659 443.458 559.159 444.958C556.659 446.458 559.659 450.458 563.659 455.958C549.659 453.958 550.159 438.958 549.159 436.458C547.159 437.958 552.659 449.958 549.159 457.458Z" fill="#C751FF"/>
<mask id="mask6_97_3116" style="mask-type:alpha" maskUnits="userSpaceOnUse" x="472" y="308" width="201" height="181">
<path d="M549.159 457.458C541.559 439.058 495.659 409.791 472.659 398.958L479.159 382.458C511.159 360.124 575.359 314.457 576.159 310.457C577.159 305.457 590.659 310.457 596.659 311.957C593.742 311.957 583.659 315.957 583.659 320.957C589.659 311.457 615.659 319.457 617.659 324.957C614.659 321.96 596.659 323.957 596.659 328.457C597.659 327.457 612.159 327.457 613.159 331.957C610.659 329.457 605.159 331.957 605.159 336.957C611.159 330.457 631.66 338.957 634.66 343.457C627.16 341.457 620.659 350.957 622.159 351.958C624.4 353.451 634.66 349.957 634.66 352.458C632.66 351.526 625.66 356.457 630.66 359.458C638.16 354.958 654.66 359.957 654.66 372.958C650.66 364.958 633.16 370.958 638.66 370.458C644.16 369.958 652.16 380.458 650.66 380.458C649.16 378.458 643.66 377.958 643.66 380.458C664.16 387.458 661.16 407.458 660.16 405.458C659.16 403.458 652.16 395.958 652.16 401.958C652.16 407.958 667.16 407.958 670.66 419.458C665.16 412.958 661.66 412.958 654.66 412.958C668.16 421.458 675.16 437.958 670.66 444.958C669.66 437.458 659.16 432.958 654.66 432.958C657.16 435.458 654.66 439.958 652.16 441.458C649.16 431.958 648.66 428.458 634.66 428.458C638.66 431.958 648.16 434.958 643.66 444.958C641.16 438.958 636.66 439.958 636.66 441.458C640.66 446.958 636.16 462.458 630.66 465.458C629.66 461.958 626.66 457.458 623.159 458.958C627.16 460.958 630.66 470.458 623.159 476.958C619.159 470.958 614.159 468.958 609.159 468.958C609.159 474.958 614.159 477.958 623.159 487.958C606.797 489.681 591.918 468.784 589.06 463.906C589.811 465.905 591.024 470.526 587.159 472.458C587.159 465.958 561.659 443.458 559.159 444.958C556.659 446.458 559.659 450.458 563.659 455.958C549.659 453.958 550.159 438.958 549.159 436.458C547.159 437.958 552.659 449.958 549.159 457.458Z" fill="#C751FF"/>
</mask>
<g mask="url(#mask6_97_3116)">
<path d="M566.5 370.5C559 374.5 501.333 385 470.5 391.5L472.5 382.5L591.5 290.5L608.5 312L621.5 326C601.5 322.5 579.118 363.77 566.5 370.5Z" fill="#A72FE0"/>
</g>
<path d="M534.659 315.957L472.159 386.458C496.992 378.624 544.659 358.958 556.659 346.457C570.021 332.539 645.16 262.457 645.16 240.457C645.16 218.457 575.159 91.4558 567.659 82.4558C560.159 73.4557 508.659 62.9556 494.659 56.4556C480.578 49.9181 440.658 25.9554 430.158 31.9554C419.658 37.9555 321.158 104.456 317.158 117.956C313.158 131.456 280.157 288.957 280.657 290.957C280.855 291.747 312.386 316.693 338.158 336.957C339.158 334.457 339.158 333.957 339.158 332.957C316.543 314.834 288.657 291.568 288.657 288.957C288.657 285.448 306.09 225.746 329.658 185.956C353.102 146.375 382.67 126.7 387.158 124.456C396.158 119.956 454.658 141.956 462.658 145.456C470.659 148.956 555.659 249.957 556.659 257.957C557.459 264.357 542.326 299.29 534.659 315.957Z" fill="#051226"/>
<path d="M435.158 390.957C419.778 392.049 415.777 390.388 409.706 389.223C409.166 391.698 409.301 396.211 414.158 397.957C420.229 400.141 418.563 400.565 435.158 400.128C451.753 399.692 453.333 396.821 461.158 395.657L461.158 384.957C458.19 386.049 450.539 389.866 435.158 390.957Z" fill="#051226"/>
<path d="M475.538 393.838C473.635 401.522 466.79 405.873 460.705 404.366C454.62 402.859 450.597 395.817 452.5 388.133C454.403 380.448 461.247 376.098 467.332 377.605C473.417 379.112 477.441 386.153 475.538 393.838Z" fill="#0B3367" stroke="#030001" stroke-width="5"/>
<path d="M419.306 396.288C416.193 402.69 409.524 405.153 404.724 402.82C399.925 400.486 397.744 393.719 400.857 387.317C403.97 380.914 410.639 378.451 415.439 380.785C420.238 383.118 422.419 389.885 419.306 396.288Z" fill="#0B3367" stroke="#030001" stroke-width="5"/>
<path d="M609.659 144.456C614.059 142.056 613.826 143.456 613.159 144.456C609.605 149.256 605.38 154.917 600.83 160.956C580.413 188.053 553.449 222.765 551.159 221.457C549.118 220.29 542.168 208.954 536.357 198.957C534.197 195.241 532.194 191.711 530.659 188.957C555.159 175.123 605.259 146.856 609.659 144.456Z" fill="#ADA2F1"/>
<path d="M605.659 154.456C585.159 181.956 553.448 222.765 551.159 221.457C549.117 220.29 542.168 208.954 536.357 198.957C571.659 177.956 585.489 165.456 605.659 154.456Z" fill="#7567E4"/>
<path d="M582.659 168.956C559.659 188.457 543.659 203.457 542.159 208.457C541.159 206.957 542.168 208.954 536.357 198.957C557.659 186.957 571.659 175.457 582.659 168.956Z" fill="#4F41D7"/>
<path d="M436.658 210.456C425.158 229.457 432.158 242.457 433.158 244.957C433.677 234.903 442.5 222.785 447.959 219.389C453.417 215.992 479.658 211.456 485.659 207.456C475.778 207.24 468.301 204.066 436.658 210.456Z" fill="#7567E4"/>
<path d="M437.015 209.347C431.035 212.269 429.521 226.477 430.158 236.456C430.677 226.403 432.915 214.689 438.373 211.293C443.831 207.896 463.582 206.325 474.658 205.956C464.778 205.74 441.799 207.01 437.015 209.347Z" fill="#1D0DB9"/>
<path d="M443.658 218.456C435.158 226.248 433.158 237.457 433.158 244.957C444.992 244.957 467.259 242.057 471.659 238.457C480.214 231.456 478.992 219.956 478.659 213.456C469.992 212.456 448.459 214.056 443.658 218.456Z" fill="white"/>
<path d="M474.159 224.018C474.159 232.424 467.227 239.253 458.658 239.253C450.155 239.253 442.699 232.051 442.659 221.34C443.353 219.466 445.307 218.105 448.3 217.214C451.316 216.317 455.261 215.936 459.658 215.936C460.976 215.936 462.253 215.626 463.45 215.235C464.05 215.039 464.636 214.821 465.2 214.608C465.267 214.583 465.333 214.558 465.399 214.533C465.894 214.346 466.37 214.166 466.833 214.007C467.892 213.644 468.819 213.416 469.637 213.463C470.424 213.508 471.133 213.809 471.776 214.574C473.932 217.142 474.159 220.211 474.159 224.018Z" fill="url(#paint10_linear_97_3116)" stroke="url(#paint11_linear_97_3116)"/>
<path d="M469.159 221.387C469.159 227.224 464.53 231.957 458.82 231.957C453.11 231.957 448.159 226.919 448.159 219.529C449.128 216.647 453.756 215.622 459.466 215.622C462.677 215.622 465.647 212.48 467.543 214.827C469.019 216.655 469.159 218.832 469.159 221.387Z" fill="#370F4A"/>
<path d="M466.856 221.037C465.954 221.654 469.677 222.305 472.624 221.562C475.251 220.9 476.667 219.449 476.461 219.141C476.256 218.833 470.408 218.616 466.856 221.037Z" fill="white"/>
<path d="M464.629 221.471C463.613 220.98 462.345 221.368 462.174 221.928C462.002 222.488 463.316 223.355 463.933 223.207C464.549 223.059 465.2 221.757 464.629 221.471Z" fill="white"/>
<path d="M469.659 238.457C478.056 232.108 478.487 226.177 479.159 221.957C478.659 228.457 475.855 235.799 473.159 237.957C465.549 244.044 454.659 243.957 443.659 244.457C452.749 243.447 462.467 243.894 469.659 238.457Z" fill="#1D0DB9"/>
<path d="M434.158 238.957C434.158 238.975 434.156 238.999 434.153 239.029C433.788 243.764 436.669 244.458 438.658 244.757L436.158 244.957H433.158C433.158 243.046 434.071 239.675 434.153 239.029C434.154 239.005 434.156 238.981 434.158 238.957Z" fill="#1D0DB9"/>
<g style="mix-blend-mode:multiply">
<path d="M445.658 217.957C438.858 219.957 434.492 235.457 433.158 242.957C436.825 236.957 445.037 222.653 448.659 221.957C461.659 219.457 469.742 218.89 478.909 218.557L478.759 214.957C470.592 215.123 452.459 215.957 445.658 217.957Z" fill="#4A0F23" fill-opacity="0.2"/>
</g>
<path d="M449.158 218.957C440.358 220.957 434.325 237.123 433.158 244.457C432.658 234.457 438.973 218.705 443.658 214.957C451.158 208.957 464.659 208.957 472.159 208.957C478.159 208.957 484.659 206.957 486.159 203.457C485.659 207.457 481.878 214.79 477.659 215.457C468.159 216.957 460.158 216.457 449.158 218.957Z" fill="black"/>
<path d="M372.274 226.931C390.83 241.299 387.324 256.743 387.166 259.425C383.459 250.104 371.152 241.507 364.849 240.058C358.545 238.61 339.172 239.801 332.158 237.957C341.535 234.573 339.978 231.085 372.274 226.931Z" fill="#7567E4"/>
<path d="M370.924 225.835C377.524 226.691 385.658 239.957 387.158 249.957C383.451 240.597 376.518 229.584 370.26 228.112C364.002 226.64 348.27 231.763 337.658 234.957C346.95 231.592 365.644 225.151 370.924 225.835Z" fill="#1D0DB9"/>
<path d="M370.009 236.837C379.429 241.906 384.615 251.992 386.991 259.106C377.311 262.338 358.178 265.669 353.438 263.456C344.223 259.153 341.58 247.911 339.794 241.654C346.567 238.339 364.689 233.975 370.009 236.837Z" fill="white"/>
<path d="M351.2 250.224C353.885 258.265 361.729 262.77 368.639 260.463C375.529 258.162 379.092 249.891 376.451 241.872C373.994 238.474 367.478 236.268 360.436 238.619C359.329 238.989 358.216 239.007 357.178 238.908C356.533 238.847 355.873 238.735 355.265 238.631C354.924 238.573 354.599 238.518 354.303 238.476C353.428 238.352 352.746 238.335 352.219 238.536C351.739 238.719 351.312 239.117 351.023 240.036C350.048 243.138 350.028 246.714 351.2 250.224Z" fill="url(#paint12_linear_97_3116)" stroke="url(#paint13_linear_97_3116)"/>
<path d="M355.613 247.767C357.506 253.438 362.701 256.813 367.216 255.306C371.73 253.798 373.855 247.979 371.962 242.308C370.26 239.764 367.173 235.449 362.658 236.956C360.119 237.804 356.037 237.828 355.299 240.609C354.725 242.774 354.784 245.285 355.613 247.767Z" fill="#370F4A"/>
<path d="M384.537 253.644C384.542 253.661 384.55 253.684 384.561 253.712C386.14 258.193 383.603 259.854 381.758 260.657L384.658 259.957L387.056 259.18C386.561 257.335 384.807 254.315 384.561 253.712C384.553 253.689 384.545 253.666 384.537 253.644Z" fill="#1D0DB9"/>
<g style="mix-blend-mode:multiply">
<path d="M369.736 237.893C376.178 238.237 383.493 250.07 386.596 257.003C381.849 252.063 371.493 242.284 368.158 242.457C356.185 243.077 349.23 244.639 341.158 246.457L340.122 242.722C347.28 240.976 363.294 237.548 369.736 237.893Z" fill="#4A0F23" fill-opacity="0.2"/>
</g>
<path d="M365.668 238.814C373.5 238.307 383.555 251.994 386.832 258.631C384.074 249.009 374.391 235.639 369.371 233.363C361.336 229.721 350.293 233.408 344.158 235.457C339.25 237.095 333.658 238.814 330.658 235.957C331.658 238.814 337.583 243.799 341.246 243.278C349.492 242.106 355.878 239.447 365.668 238.814Z" fill="black"/>
<path d="M355.074 262.91C346.194 259.181 343.963 253.674 342.077 249.854C344.545 255.883 349.164 262.082 352.053 263.391C360.206 267.087 369.086 264.03 378.243 261.499C370.487 263.024 362.679 266.102 355.074 262.91Z" fill="#1D0DB9"/>
<path d="M370.125 246.089C369.305 245.73 371.604 244.207 373.852 244.184C375.856 244.164 377.308 245.182 377.273 245.522C377.239 245.863 373.353 247.497 370.125 246.089Z" fill="white"/>
<path d="M367.919 246.425C367.13 247.232 365.806 247.298 365.455 246.83C365.103 246.361 366.044 245.099 366.674 245.029C367.305 244.959 368.359 245.962 367.919 246.425Z" fill="white"/>
<g style="mix-blend-mode:multiply" opacity="0.5">
<path d="M401.188 183.156C401.188 183.156 405.497 191.444 408.328 195.27C408.328 195.27 417.046 197.677 438.698 193.479C460.35 189.281 463.634 188.312 468.415 188.254C473.197 188.197 487.159 191.556 487.159 191.556C483.988 189.771 477.5 186.5 468.197 182.698C468.197 182.698 464.672 182.185 461.859 182.033C459.047 181.882 432.05 185.441 419.359 185.332C412.312 185.244 401.188 183.156 401.188 183.156Z" fill="#ADA2F1"/>
</g>
<path d="M400.966 180.189C400.966 180.189 404.96 188.6 407.584 192.483C407.584 192.483 415.665 194.925 435.732 190.665C455.8 186.405 458.845 185.421 463.276 185.363C467.707 185.304 480.648 188.714 480.648 188.714C477.738 186.92 471.426 183.776 462 180.5C462 180.5 458.732 179.979 456.125 179.825C453.518 179.672 429.571 182.508 417.808 182.397C411.276 182.308 400.966 180.189 400.966 180.189Z" fill="#051226"/>
<path d="M407.595 192.521C407.595 192.521 399.486 184.724 398.158 180.495L399.426 180.146C399.426 180.146 405.961 190.897 407.595 192.521Z" fill="#051226"/>
<g style="mix-blend-mode:multiply" opacity="0.5">
<path d="M366.259 193.85C366.259 193.85 368.217 202.894 368.658 207.456C368.658 207.456 363.505 214.94 349.272 221.395C335.04 227.85 332.717 228.543 330.033 230.706C328.557 231.897 327.658 232.957 327.158 233.457C327.058 233.457 326.425 232.556 326.425 232.556C326.815 228.569 326.14 226.268 327.547 223.375L327.232 225.882C327.232 225.882 328.918 223.814 330.4 222.384C331.881 220.953 348.781 211.469 355.719 205.519C359.593 202.179 366.259 193.85 366.259 193.85Z" fill="#ADA2F1"/>
</g>
<path d="M365.851 191.098C365.851 191.098 367.809 200.142 368.25 204.705C368.25 204.705 364.687 210.783 350.455 217.237C336.222 223.692 333.899 224.385 331.216 226.549C329.74 227.739 327.928 230.429 326.89 232.699C326.79 232.699 326.158 231.799 326.158 231.799C326.548 227.812 327.323 222.11 328.729 219.217L328.415 221.725C328.415 221.725 330.101 219.656 331.582 218.226C333.064 216.796 349.964 207.311 356.902 201.361C360.776 198.022 365.851 191.098 365.851 191.098Z" fill="#051226"/>
<path d="M368.263 204.743C368.263 204.743 369.087 194.159 367.681 189.957Z" fill="#051226"/>
<path d="M428.658 322.957C432.286 321.921 436.805 317.261 438.5 315C440 313 445.5 304 446.5 301.5C439.885 299.411 434.617 296.83 429.158 297.957C426.777 298.449 424.7 300.955 421.658 301.957C419.583 302.641 415.849 301.589 413.658 302.457C409.658 304.042 404.5 310.5 402 313C403.5 315 415.5 321 416.5 321.5C418.5 322.5 425.158 323.957 428.658 322.957Z" fill="#24334A"/>
<path d="M425.158 309.957C427.878 309.18 434.658 307.957 436.658 306.457C437.658 306.457 445.158 303.457 446.158 300.957C439.544 298.868 434.617 296.83 429.158 297.957C426.777 298.449 424.7 300.955 421.658 301.957C419.583 302.641 415.849 301.589 413.658 302.457C409.658 304.042 404.5 310.5 402 313C404.5 314.5 410.658 313.457 412.158 312.957C414.658 312.957 421.658 310.957 425.158 309.957Z" fill="#051226"/>
<path d="M400.387 311.285C399.29 309.728 396.086 309.269 395.565 309.807C394.085 311.334 398.309 312.766 400.399 313.161C401.615 313.39 402.794 313.592 403.635 313.85C404.772 314.199 410.02 313.716 415.33 313.078C422.656 312.198 431.399 309.697 438.089 306.807C440.72 305.347 446.193 302.318 447.036 301.879C448.089 301.33 450.184 299.706 451.226 298.631C452.268 297.555 454.363 295.931 452.235 295.976C450.107 296.021 448.033 298.698 445.439 301.912C445.107 302.324 437.512 306.386 434.897 306.874C431.715 307.467 429.043 306.997 425.341 308.128C422.747 308.92 420.064 310.345 415.84 312.014C415.141 312.29 406.41 313.265 405.22 313.29C404.156 313.313 401.485 312.842 400.387 311.285Z" fill="black"/>
<path d="M428.658 321.957C426.158 322.639 421 323 415.5 321C419.5 323 425.658 323.957 429.158 322.957C431.878 322.18 437.867 316.5 439.2 314C438.2 315.667 433.058 320.757 428.658 321.957Z" fill="black"/>
</g>
<defs>
<filter id="filter0_f_97_3116" x="3.10077" y="425.002" width="166.001" height="166.001" filterUnits="userSpaceOnUse" color-interpolation-filters="sRGB">
<feFlood flood-opacity="0" result="BackgroundImageFix"/>
<feBlend mode="normal" in="SourceGraphic" in2="BackgroundImageFix" result="shape"/>
<feGaussianBlur stdDeviation="15" result="effect1_foregroundBlur_97_3116"/>
</filter>
<filter id="filter1_f_97_3116" x="153" y="649" width="164" height="164" filterUnits="userSpaceOnUse" color-interpolation-filters="sRGB">
<feFlood flood-opacity="0" result="BackgroundImageFix"/>
<feBlend mode="normal" in="SourceGraphic" in2="BackgroundImageFix" result="shape"/>
<feGaussianBlur stdDeviation="15" result="effect1_foregroundBlur_97_3116"/>
</filter>
<filter id="filter2_f_97_3116" x="123.157" y="471.958" width="166.001" height="166.001" filterUnits="userSpaceOnUse" color-interpolation-filters="sRGB">
<feFlood flood-opacity="0" result="BackgroundImageFix"/>
<feBlend mode="normal" in="SourceGraphic" in2="BackgroundImageFix" result="shape"/>
<feGaussianBlur stdDeviation="15" result="effect1_foregroundBlur_97_3116"/>
</filter>
<filter id="filter3_f_97_3116" x="386" y="589" width="166.001" height="166.001" filterUnits="userSpaceOnUse" color-interpolation-filters="sRGB">
<feFlood flood-opacity="0" result="BackgroundImageFix"/>
<feBlend mode="normal" in="SourceGraphic" in2="BackgroundImageFix" result="shape"/>
<feGaussianBlur stdDeviation="15" result="effect1_foregroundBlur_97_3116"/>
</filter>
<radialGradient id="paint0_radial_97_3116" cx="0" cy="0" r="1" gradientUnits="userSpaceOnUse" gradientTransform="translate(86.1011 508.003) rotate(90) scale(53.0003)">
<stop stop-color="#7567E4"/>
<stop offset="1" stop-color="#7567E4" stop-opacity="0"/>
</radialGradient>
<radialGradient id="paint1_radial_97_3116" cx="0" cy="0" r="1" gradientUnits="userSpaceOnUse" gradientTransform="translate(235 731) rotate(90) scale(52)">
<stop stop-color="#7567E4"/>
<stop offset="1" stop-color="#7567E4" stop-opacity="0"/>
</radialGradient>
<linearGradient id="paint2_linear_97_3116" x1="409" y1="243" x2="423" y2="296.5" gradientUnits="userSpaceOnUse">
<stop stop-color="#7468E5" stop-opacity="0"/>
<stop offset="0.456727" stop-color="#7468E5"/>
<stop offset="1" stop-color="#7468E5" stop-opacity="0"/>
</linearGradient>
<linearGradient id="paint3_linear_97_3116" x1="80.1011" y1="450.002" x2="135.101" y2="519.003" gradientUnits="userSpaceOnUse">
<stop stop-color="#7367E4"/>
<stop offset="1" stop-color="#7F6CFF" stop-opacity="0"/>
</linearGradient>
<linearGradient id="paint4_linear_97_3116" x1="71.1996" y1="450.516" x2="98.4255" y2="498.229" gradientUnits="userSpaceOnUse">
<stop stop-color="#7567E4"/>
<stop offset="1" stop-color="#ABA0F1"/>
</linearGradient>
<linearGradient id="paint5_linear_97_3116" x1="65.0832" y1="466.777" x2="87.2604" y2="502.939" gradientUnits="userSpaceOnUse">
<stop stop-color="#7567E4"/>
<stop offset="1" stop-color="#ABA0F1"/>
</linearGradient>
<linearGradient id="paint6_linear_97_3116" x1="80.4619" y1="434.954" x2="115.84" y2="481.59" gradientUnits="userSpaceOnUse">
<stop stop-color="#7567E4"/>
<stop offset="1" stop-color="#ABA0F1"/>
</linearGradient>
<linearGradient id="paint7_linear_97_3116" x1="92.2915" y1="432.241" x2="119.802" y2="466.162" gradientUnits="userSpaceOnUse">
<stop stop-color="#7567E4"/>
<stop offset="1" stop-color="#ABA0F1"/>
</linearGradient>
<radialGradient id="paint8_radial_97_3116" cx="0" cy="0" r="1" gradientUnits="userSpaceOnUse" gradientTransform="translate(206.157 554.959) rotate(90) scale(53.0003)">
<stop stop-color="#7567E4"/>
<stop offset="1" stop-color="#7567E4" stop-opacity="0"/>
</radialGradient>
<radialGradient id="paint9_radial_97_3116" cx="0" cy="0" r="1" gradientUnits="userSpaceOnUse" gradientTransform="translate(469 672) rotate(90) scale(53.0003)">
<stop stop-color="#7567E4"/>
<stop offset="1" stop-color="#7567E4" stop-opacity="0"/>
</radialGradient>
<linearGradient id="paint10_linear_97_3116" x1="458.158" y1="207.456" x2="458.408" y2="239.753" gradientUnits="userSpaceOnUse">
<stop stop-color="#BA27FF"/>
<stop offset="1" stop-color="#E3A8FF"/>
</linearGradient>
<linearGradient id="paint11_linear_97_3116" x1="458.408" y1="212.957" x2="458.408" y2="239.753" gradientUnits="userSpaceOnUse">
<stop stop-color="#AD00FF"/>
<stop offset="1" stop-color="#C751FF"/>
</linearGradient>
<linearGradient id="paint12_linear_97_3116" x1="358.692" y1="230.003" x2="368.715" y2="260.964" gradientUnits="userSpaceOnUse">
<stop stop-color="#BA27FF"/>
<stop offset="1" stop-color="#E3A8FF"/>
</linearGradient>
<linearGradient id="paint13_linear_97_3116" x1="360.246" y1="235.327" x2="368.797" y2="260.937" gradientUnits="userSpaceOnUse">
<stop stop-color="#AD00FF"/>
<stop offset="1" stop-color="#C751FF"/>
</linearGradient>
<clipPath id="clip0_97_3116">
<rect width="800" height="800" fill="white"/>
</clipPath>
</defs>
</svg>
